<?xml version="1.0" encoding="utf-8"?>
<!-- Svg Vector Icons : http://www.onlinewebfonts.com/icon -->
<!DOCTYPE svg PUBLIC "-//W3C//DTD SVG 1.1//EN" "http://www.w3.org/Graphics/SVG/1.1/DTD/svg11.dtd">
<svg version="1.1" xmlns="http://www.w3.org/2000/svg" xmlns:xlink="http://www.w3.org/1999/xlink" x="0px" y="0px" viewBox="0 0 256 256" enable-background="new 0 0 256 256" xml:space="preserve">
<metadata> Svg Vector Icons : http://www.onlinewebfonts.com/icon </metadata>
<g><g><g><path fill="#000000" d="M49.6,24.8v14.8h-9.8c-5.4,0-11.1,0.2-12.7,0.5c-8.7,1.2-15.4,8-16.7,16.7c-0.3,1.7-0.5,30.8-0.5,67c0,68.4,0,67.6,2.2,72c2.4,4.7,6.7,8.4,11.5,9.9c3,0.9,4.1,0.9,63.3,0.9h60.3l0.3-3.6c0.2-1.9,0.7-5.6,1.2-8c4.6-23,23-41.4,46-46c2.4-0.5,6.1-1,8.1-1.2l3.5-0.3l-0.1-46.4l-0.1-46.4l-1-2.5c-2-4.8-6.1-8.8-11.3-11c-2.8-1.2-3.2-1.2-14.8-1.4l-11.9-0.2V24.7V10h-9.7h-9.7v14.8v14.8h-39.4H69V24.8V10h-9.7h-9.7L49.6,24.8L49.6,24.8z M187,73.8v15h-78.8H29.4v-15v-15h78.8H187V73.8z"/><path fill="#000000" d="M197.1,182.4v14.8h-14.8h-14.8v9.7v9.7h14.8h14.8v14.8V246h9.7h9.7v-14.8v-14.8h14.8H246v-9.7v-9.7h-14.8h-14.8v-14.8v-14.8h-9.7h-9.7L197.1,182.4L197.1,182.4z"/></g></g></g>
</svg>