<?xml version="1.0" encoding="utf-8"?>
<!-- Svg Vector Icons : http://www.onlinewebfonts.com/icon -->
<!DOCTYPE svg PUBLIC "-//W3C//DTD SVG 1.1//EN" "http://www.w3.org/Graphics/SVG/1.1/DTD/svg11.dtd">
<svg version="1.1" xmlns="http://www.w3.org/2000/svg" xmlns:xlink="http://www.w3.org/1999/xlink" x="0px" y="0px" viewBox="0 0 256 256" enable-background="new 0 0 256 256" xml:space="preserve">
<metadata> Svg Vector Icons : http://www.onlinewebfonts.com/icon </metadata>
<g> <path fill="#000000" d="M188.9,46.5H42c-2.8,0-5.2,2.3-5.2,5.2s2.3,5.2,5.2,5.2h146.8c2.8,0,5.2-2.3,5.2-5.2S191.7,46.5,188.9,46.5  M188.9,83.4H42c-2.8,0-5.2,2.3-5.2,5.2c0,2.9,2.3,5.2,5.2,5.2h146.8c2.8,0,5.2-2.3,5.2-5.2C194,85.8,191.7,83.4,188.9,83.4  M146.7,125.6c0-2.9-2.3-5.2-5.2-5.2H42c-2.8,0-5.2,2.3-5.2,5.2s2.3,5.2,5.2,5.2h99.5C144.4,130.7,146.7,128.4,146.7,125.6  M117.2,238.2H27.8c-4.1,0-7.5-3.4-7.5-7.5V20.5c0-4.1,3.4-7.5,7.5-7.5h175.2c4.1,0,7.5,3.4,7.5,7.5v90.6c0,2.8,2.3,5.2,5.2,5.2 c2.8,0,5.2-2.3,5.2-5.2V20.5c0-9.8-8-17.8-17.8-17.8H27.8C18,2.7,10,10.7,10,20.5v210.1c0,9.8,8,17.8,17.8,17.8h89.4 c2.9,0,5.2-2.3,5.2-5.2C122.4,240.5,120.1,238.2,117.2,238.2 M235.7,243h-83.5v-11.8h32.4c2.8,0,5.2-2.3,5.2-5.2v-27 c0-2.2-1.5-4.2-3.6-4.9c-10.7-3.4-17.9-13.3-17.9-24.5c0-14.2,11.5-25.7,25.7-25.7c14.2,0,25.7,11.5,25.7,25.7 c0,11.2-7.2,21.1-17.9,24.5c-2.1,0.7-3.6,2.7-3.6,4.9v27c0,2.8,2.3,5.2,5.2,5.2h32.4V243z M240.8,220.9h-32.4v-18.3 c13-5.7,21.5-18.5,21.5-33c0-19.9-16.2-36-36-36s-36,16.2-36,36c0,14.4,8.5,27.3,21.5,33v18.3H147c-2.8,0-5.2,2.3-5.2,5.2v22.1 c0,2.9,2.3,5.2,5.2,5.2h93.8c2.9,0,5.2-2.3,5.2-5.2v-22.1C246,223.2,243.7,220.9,240.8,220.9L240.8,220.9z"/></g>
</svg>