<?xml version="1.0" encoding="utf-8"?>
<!-- Svg Vector Icons : http://www.onlinewebfonts.com/icon -->
<!DOCTYPE svg PUBLIC "-//W3C//DTD SVG 1.1//EN" "http://www.w3.org/Graphics/SVG/1.1/DTD/svg11.dtd">
<svg version="1.1" xmlns="http://www.w3.org/2000/svg" xmlns:xlink="http://www.w3.org/1999/xlink" x="0px" y="0px" viewBox="0 0 256 256" enable-background="new 0 0 256 256" xml:space="preserve">
<metadata> Svg Vector Icons : http://www.onlinewebfonts.com/icon </metadata>
<g><g><g><path fill="#000000" d="M111.9,10.3c-47.6,6.9-86.8,41.8-98.4,87.8c-2.8,11.1-3.6,17.9-3.6,30.4c0.1,12.1,1.1,19.9,4,30.7c8.8,32.7,32.6,61.2,63.3,75.7c58.4,27.5,127.5,3.6,156.1-54.2c16.5-33.3,16.8-70.6,1-104c-16.5-34.5-48.5-59-86.1-65.7C139.8,9.5,120.3,9.1,111.9,10.3z M106.5,57.9l1.8,1.6l0.2,10.8l0.2,10.8l8.1,1.1c17.8,2.5,33.5,7.1,47.9,14c19.2,9.3,32.2,20.8,38.4,34.3c3.4,7.1,4.3,11.4,4.2,18.8c-0.3,19.9-15.7,38.8-42.2,51.5c-10,4.8-14.4,6.2-16.1,5.3c-1.7-0.9-2.5-3.7-1.5-4.9c0.4-0.5,3.4-2.5,6.8-4.5c8.7-5,15.7-12,18.9-18.4c2.2-4.6,2.4-5.4,2.4-10.6c0-5-0.3-6.2-2.1-10.2c-7.3-15.3-31.2-26.8-61.7-29.7l-3.2-0.3v10.8c0,10.6,0,10.8-1.7,12.8c-1.4,1.7-2.2,2-4.6,2c-2.8,0-3.2-0.3-28-22.1c-13.8-12.1-25.4-22.7-25.8-23.4c-1.2-2.3-0.8-5.2,1.2-7.3c1-1.1,12.6-11.5,25.9-23.1C98,57.8,99.9,56.3,102.2,56.3C103.8,56.3,105.2,56.8,106.5,57.9z"/></g></g></g>
</svg>