<?xml version="1.0" encoding="utf-8"?>
<!-- Svg Vector Icons : http://www.onlinewebfonts.com/icon -->
<!DOCTYPE svg PUBLIC "-//W3C//DTD SVG 1.1//EN" "http://www.w3.org/Graphics/SVG/1.1/DTD/svg11.dtd">
<svg version="1.1" xmlns="http://www.w3.org/2000/svg" xmlns:xlink="http://www.w3.org/1999/xlink" x="0px" y="0px" viewBox="0 0 256 256" enable-background="new 0 0 256 256" xml:space="preserve">
<metadata> Svg Vector Icons : http://www.onlinewebfonts.com/icon </metadata>
<g><g><g><path fill="#000000" d="M121.1,10.4c-16.7,2.2-31.9,13.2-39.5,28.8c-3.8,7.9-5.2,14.5-5.3,24.9c0,22.7-8.1,50.1-21.1,71.6c-6.1,10.1-11.8,17.5-20.5,26.7c-9,9.5-9.5,10.7-10,20.2c-0.2,4.8-0.1,6.5,0.5,8.7c1.1,3.6,4,7.1,7.4,8.9l2.7,1.4H128h92.5l2.2-1c2.8-1.3,5.9-4.3,7.3-7.3c1-2,1.2-3,1.3-8.9c0.1-5,0-7.1-0.6-9c-0.9-3-4.9-8.6-11-15.1c-12-13-21-26.6-27.8-42c-7.8-17.7-12.3-37.3-12.3-54.1c0-10.6-1.7-18.1-5.9-26.2C163.8,18.6,142.7,7.6,121.1,10.4z"/><path fill="#000000" d="M98.5,218c0,3,1.4,8.1,3.3,11.9c4.8,9.7,15.3,16.2,26.2,16.2c10.9,0,21.5-6.5,26.2-16.1c1.8-3.8,3.2-8.9,3.3-11.9v-1.5H128H98.5V218z"/></g></g></g>
</svg>