<?xml version="1.0" encoding="utf-8"?>
<!-- Svg Vector Icons : http://www.onlinewebfonts.com/icon -->
<!DOCTYPE svg PUBLIC "-//W3C//DTD SVG 1.1//EN" "http://www.w3.org/Graphics/SVG/1.1/DTD/svg11.dtd">
<svg version="1.1" xmlns="http://www.w3.org/2000/svg" xmlns:xlink="http://www.w3.org/1999/xlink" x="0px" y="0px" viewBox="0 0 256 256" enable-background="new 0 0 256 256" xml:space="preserve">
<metadata> Svg Vector Icons : http://www.onlinewebfonts.com/icon </metadata>
<g> <path fill="#000000" d="M72.5,85c-0.7,0-1.4,0-2.1-0.7c-15.3-5.6-25.7-20.1-25.7-36.1C44.7,27.4,62.1,10,82.9,10 c20.8,0,38.2,17.4,38.2,38.2c0,4.2-2.8,6.9-6.9,6.9c-4.2,0-6.9-2.8-6.9-6.9c0-13.2-11.1-24.3-24.3-24.3 c-13.2,0-24.3,11.1-24.3,24.3c0,10.4,6.2,19.4,16,22.9c3.5,1.4,5.6,5.6,4.2,9C78,82.9,75.2,85,72.5,85z M114.1,147.4 C114.1,147.4,113.4,147.4,114.1,147.4c-4.2,0-6.9-3.5-6.9-7.6s-0.7-8.3-2.8-12.5c-2.8-5.6-8.3-9.7-13.9-11.8 c-6.2-2.1-12.5-1.4-18.7,1.4c-3.5,2.1-7.6,0.7-9.7-2.8c-2.1-3.5-0.7-7.6,2.8-9.7c9-4.9,19.4-5.6,29.2-2.8 c9.7,2.8,17.4,9.7,22.2,18.7c3.5,6.2,4.9,13.2,4.2,20.1C121.1,144.7,117.6,147.4,114.1,147.4z M82.9,246c-9.7,0-19.4-3.5-27.1-11.1 c-11.1-11.1-14.6-29.2-7.6-43.7c1.4-3.5,5.6-4.9,9-3.5c3.5,1.4,4.9,5.6,3.5,9c-4.2,9-2.8,20.1,4.9,27.8c9.7,9.7,25,9.7,34.7,0 c9.7-9.7,9.7-25,0-34.7c-2.8-2.8-2.8-6.9,0-9.7c2.8-2.8,6.9-2.8,9.7,0c14.6,14.6,14.6,38.9,0,54.1C102.3,242.5,92.6,246,82.9,246z  M48.2,134.9c-20.8,0-38.2-17.4-38.2-38.2c0-20.8,17.4-38.2,38.2-38.2c4.2,0,8.3,0.7,11.8,2.1c3.5,1.4,5.6,4.9,4.2,9 c-1.4,3.5-4.9,5.6-9,4.2c-2.8-0.7-4.9-1.4-7.6-1.4c-13.2,0-24.3,11.1-24.3,24.3s11.1,24.3,24.3,24.3c4.2,0,6.9,2.8,6.9,6.9 C54.4,132.2,52.3,134.9,48.2,134.9z M114.1,218.2c-3.5,0-6.9-3.5-6.9-6.9V44.7c0-3.5,3.5-6.9,6.9-6.9c4.2,0,6.9,3.5,6.9,6.9v166.6 C121.1,215.5,117.6,218.2,114.1,218.2z M82.9,246c-11.8,0-24.3-5.6-31.2-16.7c-9-13.2-9-31.2,0.7-44.4c2.1-2.8,6.2-3.5,9.7-1.4 c3.5,2.1,3.5,6.2,1.4,9.7c-6.2,8.3-6.2,19.4,0,28.5c7.6,11.1,22.9,13.9,34,6.2c11.1-7.6,13.9-22.9,6.2-34c-2.1-3.5-1.4-7.6,2.1-9.7 s7.6-1.4,9.7,2.1c11.8,17.4,7.6,41-9.7,53.4C98.2,243.9,90.5,246,82.9,246z M48.2,197.4c-20.8,0-38.2-17.4-38.2-38.2 s17.4-38.2,38.2-38.2c4.2,0,6.9,2.8,6.9,6.9c0,4.2-2.8,6.9-6.9,6.9c-13.2,0-24.3,11.1-24.3,24.3s11.1,24.3,24.3,24.3 c13.2,0,24.3-11.1,24.3-24.3c0-4.2,2.8-6.9,6.9-6.9c4.2,0,6.9,2.8,6.9,6.9C86.4,180.1,69,197.4,48.2,197.4z M183.5,85 c-2.8,0-5.6-2.1-6.2-4.9c-1.4-3.5,0.7-7.6,4.2-9c9.7-3.5,16-12.5,16-22.9c0-13.2-11.1-24.3-24.3-24.3c-13.2,0-24.3,11.1-24.3,24.3 c0,4.2-2.8,6.9-6.9,6.9c-4.2,0-6.9-2.8-6.9-6.9c0-20.8,17.4-38.2,38.2-38.2c20.8,0,38.2,17.4,38.2,38.2c0,16-10.4,30.5-25.7,36.1 C184.9,84.3,184.2,85,183.5,85L183.5,85z M141.9,147.4c-3.5,0-6.9-2.8-6.9-6.2c-0.7-6.9,1.4-13.9,4.2-20.1c4.9-9,12.5-16,22.2-18.7 c9.7-2.8,20.1-2.1,29.2,2.8c3.5,2.1,4.9,6.2,2.8,9.7c-2.1,3.5-6.2,4.9-9.7,2.8c-5.6-2.8-12.5-3.5-18.7-1.4 c-6.2,2.1-11.1,6.2-13.9,11.8c-2.1,4.2-2.8,8.3-2.8,12.5C148.8,143.3,146,146.7,141.9,147.4C142.6,147.4,141.9,147.4,141.9,147.4z  M173.1,246c-9.7,0-19.4-3.5-27.1-11.1c-14.6-14.6-14.6-38.9,0-54.1c2.8-2.8,6.9-2.8,9.7,0c2.8,2.8,2.8,6.9,0,9.7 c-9.7,9.7-9.7,25,0,34.7c9.7,9.7,25,9.7,34.7,0c6.9-6.9,9-18.7,4.9-27.8c-1.4-3.5,0-7.6,3.5-9c3.5-1.4,7.6,0,9,3.5 c6.9,14.6,4.2,31.9-7.6,43.7C192.6,242.5,182.8,246,173.1,246z M207.8,134.9c-4.2,0-6.9-2.8-6.9-6.9c0-4.2,2.8-6.9,6.9-6.9 c13.2,0,24.3-11.1,24.3-24.3S221,72.5,207.8,72.5c-2.8,0-5.6,0.7-7.6,1.4c-3.5,1.4-7.6-0.7-9-4.2c-1.4-3.5,0.7-7.6,4.2-9 c4.2-1.4,7.6-2.1,11.8-2.1c20.8,0,38.2,17.4,38.2,38.2C245.3,117.6,228.6,134.9,207.8,134.9L207.8,134.9z M141.9,218.2 c3.5,0,6.9-3.5,6.9-6.9V44.7c0-3.5-3.5-6.9-6.9-6.9c-4.2,0-6.9,3.5-6.9,6.9v166.6C134.9,215.5,138.4,218.2,141.9,218.2z M173.1,246 c-7.6,0-15.3-2.1-21.5-6.9c-17.4-11.8-21.5-36.1-9.7-53.4c2.1-3.5,6.2-4.2,9.7-2.1c3.5,2.1,4.2,6.2,2.1,9.7 c-7.6,11.1-4.9,26.4,6.2,34c11.1,7.6,26.4,4.9,34-6.2c5.6-8.3,5.6-19.4,0-28.5c-2.1-2.8-1.4-7.6,1.4-9.7c2.8-2.1,7.6-1.4,9.7,1.4 c9.7,13.2,9.7,30.5,0.7,44.4C196.7,240.4,184.9,246,173.1,246L173.1,246z M207.8,197.4c-20.8,0-38.2-17.4-38.2-38.2 c0-4.2,2.8-6.9,6.9-6.9c4.2,0,6.9,2.8,6.9,6.9c0,13.2,11.1,24.3,24.3,24.3c13.2,0,24.3-11.1,24.3-24.3s-11.1-24.3-24.3-24.3 c-4.2,0-6.9-2.8-6.9-6.9c0-4.2,2.8-6.9,6.9-6.9c20.8,0,38.2,17.4,38.2,38.2S228.6,197.4,207.8,197.4L207.8,197.4z"/></g>
</svg>