<?xml version="1.0" encoding="utf-8"?>
<!-- Svg Vector Icons : http://www.onlinewebfonts.com/icon -->
<!DOCTYPE svg PUBLIC "-//W3C//DTD SVG 1.1//EN" "http://www.w3.org/Graphics/SVG/1.1/DTD/svg11.dtd">
<svg version="1.1" xmlns="http://www.w3.org/2000/svg" xmlns:xlink="http://www.w3.org/1999/xlink" x="0px" y="0px" viewBox="0 0 256 256" enable-background="new 0 0 256 256" xml:space="preserve">
<metadata> Svg Vector Icons : http://www.onlinewebfonts.com/icon </metadata>
<g><g><g><path fill="#000000" d="M93.9,37.9c-9.7,2.9-16.5,14-18.7,30L74.3,74l-21.3,0.2c-17.5,0.2-21.7,0.3-24,1c-9.5,2.8-16.3,9.5-18.3,17.9C9.8,96.9,9.8,199,10.7,202.3c2.2,8.1,8.3,13.9,16.7,15.7c2,0.4,30.4,0.6,99.7,0.6c106.9,0,99.7,0.2,106.3-3.2c5.9-3.1,9.7-7.5,11.7-13.5c0.9-2.7,1-5.5,1-55.2V94.2l-1.4-3.7c-2.4-6.6-6.4-11.6-11.5-14.1c-4.2-2.1-6.4-2.4-25.2-2.4c-10.1,0-18.2-0.2-18.2-0.5c0-1.4-1.8-10.3-2.7-13.2c-2.5-8.6-8.3-16.9-14-19.9c-5.5-3-5.6-3-43.3-2.9C110.8,37.5,94.6,37.7,93.9,37.9z M140.6,90.2c11.8,3.2,22.1,9.9,29.5,19.1c12.9,16.1,15.9,37.9,7.7,56.8c-12.4,28.7-46.1,41.5-74.2,28.2c-6.9-3.2-10.8-6.1-16.2-11.6c-5.5-5.6-9.6-11.9-12.1-18.6c-2.9-7.8-3.5-11.4-3.5-20.4c0.1-7.1,0.2-8.8,1.4-13.2c5.6-20.8,21.6-36.2,42.3-40.7C122,88.3,134.5,88.6,140.6,90.2z M209.4,104.7c2.4,1.4,4.9,5.5,4.9,8.1c0,6.3-5.2,11-11.5,10.4c-4.7-0.5-8.9-5.1-8.9-9.8C194,105.2,202.3,100.5,209.4,104.7z"/><path fill="#000000" d="M118.1,108.6c-4.8,1.3-7.7,2.6-11.4,5c-10.7,7.1-17.2,20.1-16.3,32.7c0.7,9,4.2,16.8,10.6,23.3c10,10.2,24.6,13.6,38,8.9c5.3-1.8,9.1-4.2,13.6-8.7c19.4-19.1,11.6-52-14.4-60.6C132.3,107.4,123.6,107.1,118.1,108.6z"/></g></g></g>
</svg>