<?xml version="1.0" encoding="utf-8"?>
<!-- Svg Vector Icons : http://www.onlinewebfonts.com/icon -->
<!DOCTYPE svg PUBLIC "-//W3C//DTD SVG 1.1//EN" "http://www.w3.org/Graphics/SVG/1.1/DTD/svg11.dtd">
<svg version="1.1" xmlns="http://www.w3.org/2000/svg" xmlns:xlink="http://www.w3.org/1999/xlink" x="0px" y="0px" viewBox="0 0 256 256" enable-background="new 0 0 256 256" xml:space="preserve">
<metadata> Svg Vector Icons : http://www.onlinewebfonts.com/icon </metadata>
<g><g><g><path fill="#000000" d="M244.5,139.2l-15.4-15.3c-2-2-5.2-2-7.2,0l-32.4,32.3l-37,37.1l-28.7-28.7c-2-2-5.2-2-7.2,0l-15.3,15.3c-2,2-2,5.3,0,7.3l47.6,47.6c2,2,5.3,2,7.3,0l88.3-88.4C246.5,144.4,246.5,141.2,244.5,139.2L244.5,139.2z M80.4,159.1l15.3-15.4c13.1-13.1,35.9-13.1,49,0l7.8,7.8l35.1-33.4V19.5H10v217h98.6l-28.2-28.4C66.9,194.6,66.9,172.6,80.4,159.1z M69.2,39.2h98.6v19.7H69.2V39.2z M69.2,78.7h98.6v19.7H69.2V78.7z M49.4,137.9H29.7v-19.7h19.7V137.9z M49.4,98.4H29.7V78.7h19.7V98.4z M49.4,59H29.7V39.2h19.7V59z M69.2,118.1h19.7v19.7H69.2V118.1z"/></g></g></g>
</svg>