<?xml version="1.0" encoding="utf-8"?>
<!-- Svg Vector Icons : http://www.onlinewebfonts.com/icon -->
<!DOCTYPE svg PUBLIC "-//W3C//DTD SVG 1.1//EN" "http://www.w3.org/Graphics/SVG/1.1/DTD/svg11.dtd">
<svg version="1.1" xmlns="http://www.w3.org/2000/svg" xmlns:xlink="http://www.w3.org/1999/xlink" x="0px" y="0px" viewBox="0 0 256 256" enable-background="new 0 0 256 256" xml:space="preserve">
<metadata> Svg Vector Icons : http://www.onlinewebfonts.com/icon </metadata>
<g><g><g><path fill="#000000" d="M199.5,16.7c-1.2,0.3-2.4,0.8-2.9,1.1c-0.4,0.2-16.2,15-34.9,32.7c-18.8,17.8-34.3,32.3-34.4,32.3c-0.2,0-15.2-14.1-33.4-31.4C73.4,32.1,59.9,19.6,58.5,18.9c-3.1-1.7-8.6-1.7-11.7,0c-1.3,0.7-8.4,7-17.1,15.3c-17.3,16.4-18.5,17.7-19.3,20c-0.7,2.3-0.4,7,0.6,9.2c0.7,1.6,21,21,58.8,56.5c4.9,4.6,8.9,8.5,8.9,8.6c0,0.2-14.7,14.3-32.7,31.3c-21,19.9-33.1,31.7-33.7,32.7c-1.2,2.3-1.2,8.5,0,10.6c1.2,2.2,33.2,32.5,35.8,33.9c3.1,1.6,8.6,1.6,11.7,0.1c1.3-0.7,13.6-12,34.7-31.9l32.6-30.9l1.9,1.7c1,0.9,16.1,15.2,33.5,31.7c22.4,21.2,32.2,30.2,33.7,30.9c2.9,1.3,8.2,1.3,11.1,0c3-1.4,34.5-31.3,36.1-34.2c1.6-3.1,1.6-7.5,0-10.5c-0.8-1.6-9.7-10.2-33.1-32.3c-17.5-16.6-32.6-30.7-33.4-31.6l-1.5-1.5l34.3-32.3c26.1-24.7,34.4-32.9,35.2-34.4c1.5-3,1.5-7.3-0.1-10.3c-1.5-2.9-33-32.8-35.9-34.1C206.4,16.3,202.1,16,199.5,16.7z"/></g></g></g>
</svg>