<?xml version="1.0" encoding="utf-8"?>
<!-- Svg Vector Icons : http://www.onlinewebfonts.com/icon -->
<!DOCTYPE svg PUBLIC "-//W3C//DTD SVG 1.1//EN" "http://www.w3.org/Graphics/SVG/1.1/DTD/svg11.dtd">
<svg version="1.1" xmlns="http://www.w3.org/2000/svg" xmlns:xlink="http://www.w3.org/1999/xlink" x="0px" y="0px" viewBox="0 0 256 256" enable-background="new 0 0 256 256" xml:space="preserve">
<metadata> Svg Vector Icons : http://www.onlinewebfonts.com/icon </metadata>
<g><g><path fill="#000000" d="M85.1,61.5c0,11.8,9.6,21.5,21.5,21.5c11.8,0,21.5-9.6,21.5-21.5c0-11.8-9.6-21.5-21.5-21.5C94.7,40,85.1,49.6,85.1,61.5z"/><path fill="#000000" d="M166.9,104.5c0,0-4.1-1.2-1.5,7.6c2.5,8.8-2.2,13-7.7,16.4c-4.2,2.6,0.7,21.6,1.9,34l-65.1-38.9l6.1-10.5l13.7,21.5c1.9,3,5.9,3.9,8.9,2c3-1.9,3.9-5.9,2-8.9l-21.2-33.4c-0.4-0.7-4.4-4.4-6.3-5.5l-6.9-3.9c-4-2.3-8.5-3-12-2.2l-42.5,4.7c-4,0.4-6.9,3.7-6.5,7.2c0.1,1.1,1.9,4.2,2.4,4.7l21.6,22.1L14.8,189c-4.9,8.5-2.7,14.7,2.7,17.8c0.1,0,0.2,0.1,0.3,0.1h-3.3c-2.5,0-4.5,2-4.5,4.5s2,4.5,4.5,4.5h132.9l98.6,0c0-0.2,0-1.6,0-10.7C246,193.6,188.7,104.5,166.9,104.5z M49.9,98.8l17-1.9l-7,12.1L49.9,98.8z M80,207H27c2.8-1.4,5.5-4,7.8-8l39.1-67.1c0,0,0,0,0,0.1c0,0,13.2,18.5,13.4,25c0.2,6.5-13.4,39.9-13.4,39.9C72.7,201.2,75.8,205.1,80,207z M138.4,190.5c-6,2.9-10.6,10.4-13.5,16.5H90.1c3.1-1.8,4.9-5.4,6.6-10.2c0,0,13.7-33,13.4-39.2c-0.2-3.6-4.8-11.8-8.5-18l56.6,33.9C154.5,180.2,148.3,185.7,138.4,190.5z"/></g></g>
</svg>