<?xml version="1.0" encoding="utf-8"?>
<!-- Svg Vector Icons : http://www.onlinewebfonts.com/icon -->
<!DOCTYPE svg PUBLIC "-//W3C//DTD SVG 1.1//EN" "http://www.w3.org/Graphics/SVG/1.1/DTD/svg11.dtd">
<svg version="1.1" xmlns="http://www.w3.org/2000/svg" xmlns:xlink="http://www.w3.org/1999/xlink" x="0px" y="0px" viewBox="0 0 256 256" enable-background="new 0 0 256 256" xml:space="preserve">
<metadata> Svg Vector Icons : http://www.onlinewebfonts.com/icon </metadata>
<g><g><g><path fill="#000000" d="M39.5,10.5c-4.7,1.2-9.1,4.7-11.3,9.3l-1.3,2.6v105.7v105.7l1.3,2.6c1.6,3.4,4.8,6.5,8.2,8.2L39,246h88.9h88.9l2.6-1.3c3.4-1.6,6.5-4.8,8.2-8.2l1.3-2.6l0.2-86.8l0.1-86.8L204,35.2L178.8,10l-68.8,0.1C72.1,10.1,40.4,10.3,39.5,10.5z M161.6,52.2v25.3h25.3h25.3v75.9v75.9h-84.4H43.5V128.1V26.9h59.1h59.1L161.6,52.2L161.6,52.2z"/><path fill="#000000" d="M65.4,61.4c-3.5,1.5-5.5,5.6-4.8,9.5c0.5,2.5,3.1,5.4,5.5,6.1c1.3,0.4,13.6,0.5,37.7,0.4c35.1-0.2,35.7-0.2,37.1-1.3c2.8-2.1,3.6-3.7,3.6-7.1s-0.8-5-3.6-7.1c-1.4-1.1-2-1.1-37.7-1.2C73.9,60.7,66.6,60.8,65.4,61.4z"/><path fill="#000000" d="M65.4,112c-3.5,1.5-5.5,5.6-4.8,9.5c0.5,2.5,3.1,5.4,5.5,6.1c1.3,0.4,21.1,0.5,63,0.4c60.6-0.2,61-0.2,62.4-1.3c2.8-2.1,3.6-3.7,3.6-7.1c0-3.3-0.8-5-3.6-7.1c-1.4-1.1-1.7-1.1-63-1.2C78.1,111.3,66.6,111.4,65.4,112z"/><path fill="#000000" d="M65.4,145.7c-3.5,1.5-5.5,5.6-4.8,9.5c0.5,2.5,3.1,5.4,5.5,6.1c1.3,0.4,21.1,0.5,63,0.4c60.6-0.2,61-0.2,62.4-1.3c2.8-2.1,3.6-3.7,3.6-7.1c0-3.3-0.8-5-3.6-7.1c-1.4-1.1-1.7-1.1-63-1.2C78.1,145.1,66.6,145.2,65.4,145.7z"/><path fill="#000000" d="M65.4,179.5c-3.5,1.5-5.5,5.6-4.8,9.5c0.5,2.5,3.1,5.4,5.5,6.1c1.3,0.4,21.1,0.5,63,0.4c60.6-0.2,61-0.2,62.4-1.3c2.8-2.1,3.6-3.7,3.6-7.1c0-3.3-0.8-5-3.6-7.1c-1.4-1.1-1.7-1.1-63-1.2C78.1,178.8,66.6,178.9,65.4,179.5z"/></g></g></g>
</svg>