<?xml version="1.0" encoding="utf-8"?>
<!-- Svg Vector Icons : http://www.onlinewebfonts.com/icon -->
<!DOCTYPE svg PUBLIC "-//W3C//DTD SVG 1.1//EN" "http://www.w3.org/Graphics/SVG/1.1/DTD/svg11.dtd">
<svg version="1.1" xmlns="http://www.w3.org/2000/svg" xmlns:xlink="http://www.w3.org/1999/xlink" x="0px" y="0px" viewBox="0 0 256 256" enable-background="new 0 0 256 256" xml:space="preserve">
<metadata> Svg Vector Icons : http://www.onlinewebfonts.com/icon </metadata>
<g><g><g><path fill="#000000" d="M28.2,102.5c-5.9,1.9-12.9,7.8-15.9,13.4c-1.8,3.3-2.3,6-2.3,12.1c0,9.4,2.3,14.4,9,20.2c13.3,11.4,34.2,6.8,41.5-9.2c2.6-5.6,2.6-16.2,0-21.8C55.1,105.1,40.5,98.6,28.2,102.5z"/><path fill="#000000" d="M120.5,102.3c-13.9,3.9-22.2,19-18.2,32.9c4.8,16.3,23.3,24.1,38,16.1c9.2-5.1,14-13,14-23.4c0-14.1-9.8-24.9-23.8-26.4C127.6,101.3,123.2,101.6,120.5,102.3z"/><path fill="#000000" d="M213.7,101.9c-7.7,1.9-15.1,8-18.3,15.2c-1.2,2.7-2,6.5-2,10.9c0,14,9.1,24.2,23.6,26.6c9.4,1.5,21.6-5.2,26.6-14.5c3.2-6,3.2-18.1,0-24.1C237.9,105.2,225,99.2,213.7,101.9z"/></g></g></g>
</svg>