<?xml version="1.0" encoding="utf-8"?>
<!-- Svg Vector Icons : http://www.onlinewebfonts.com/icon -->
<!DOCTYPE svg PUBLIC "-//W3C//DTD SVG 1.1//EN" "http://www.w3.org/Graphics/SVG/1.1/DTD/svg11.dtd">
<svg version="1.1" xmlns="http://www.w3.org/2000/svg" xmlns:xlink="http://www.w3.org/1999/xlink" x="0px" y="0px" viewBox="0 0 256 256" enable-background="new 0 0 256 256" xml:space="preserve">
<metadata> Svg Vector Icons : http://www.onlinewebfonts.com/icon </metadata>
<g><g><g><path fill="#000000" d="M109.3,10.4c-13.8,1.9-26.5,8.2-36.4,18.2C63.5,37.9,57.2,50,55.4,62.2c-1.2,7.2-0.9,6.9-4.1,7.2c-6.3,0.8-15,4.3-20.9,8.5c-13.9,9.9-21.8,27.2-20,43.6c2.2,19.1,15.5,35.3,34,41c5.4,1.7,9.8,2.2,19.6,2.2h8.7v-3.7v-3.7h-9.2c-6.1,0-10.5-0.2-13.2-0.7c-16.5-2.9-29.4-15.8-32.3-32.3c-4.5-25.7,14.1-48.2,39.9-48.2h3.5l0.3-5.9c0.1-3.2,0.6-7.4,1-9.2c4.7-21.9,20.8-38,42.8-42.8c7.5-1.6,18.3-1.3,26.3,0.7c13.8,3.5,26,12.7,32.9,24.7l1.7,2.9l6.5,0.2c10.3,0.4,15.8,2.3,21.1,7.7c5,5,7.2,10.8,7.7,19.9l0.3,5.3l5.1,0.3c16.1,0.8,28,11.8,30.9,28.7c3.5,20.1-6.7,38.9-24.8,45.9c-5.3,2.1-10.3,2.7-20.6,2.7h-9.2v3.7v3.7h8.7c9.9,0,14.3-0.5,19.6-2.2c18.1-5.7,31.4-21.4,33.9-40.1c1.8-14.1-3.8-30.2-13.9-39.5c-5.5-5.1-13.6-9.1-20-9.8c-2.2-0.3-2.7-0.5-2.8-1.3c-1.6-8.3-2.7-11.6-5.4-16.3c-2.2-3.7-7.4-8.8-11.2-11.1c-5.3-3.1-12.9-5.1-19.5-5.2c-2.2,0-2.2,0-4.2-3.1c-8.3-12.4-23-21.8-38.9-25.1C124.3,10.1,114.3,9.7,109.3,10.4z"/><path fill="#000000" d="M116.9,65.2v3.7h3.7h3.7v-3.7v-3.7h-3.7h-3.7V65.2z"/><path fill="#000000" d="M131.7,65.2v3.7h3.7h3.7v-3.7v-3.7h-3.7h-3.7V65.2z"/><path fill="#000000" d="M102.2,80v3.7h3.7h3.7V80v-3.7h-3.7h-3.7V80z"/><path fill="#000000" d="M116.9,80v3.7h3.7h3.7V80v-3.7h-3.7h-3.7V80z"/><path fill="#000000" d="M131.7,80v3.7h3.7h3.7V80v-3.7h-3.7h-3.7V80z"/><path fill="#000000" d="M146.4,80v3.7h3.7h3.7V80v-3.7h-3.7h-3.7V80z"/><path fill="#000000" d="M102.2,98.4v7.4h-3.7h-3.7v3.7v3.7h-7.4h-7.4v3.7v3.7h7.4h7.4v3.7v3.7h-7.4h-7.4v3.7v3.7h7.4h7.4v3.7v3.7h-7.4h-7.4v3.7v3.7h7.4h7.4v3.7v3.7h-7.4h-7.4v3.7v3.7h7.4h7.4v3.7v3.7h3.7h3.7v14.8v14.8H56.1H10v3.7v3.7h49.8h49.8v-18.4v-18.4h3.7h3.7V209v36.9h3.7h3.7V209v-36.9h3.7h3.7V209v36.9h3.7h3.7V209v-36.9h3.7h3.7v18.4V209h49.8H246v-3.7v-3.7h-46.1h-46.1v-14.8v-14.8h3.7h3.7v-3.7v-3.7h7.4h7.4v-3.7v-3.7h-7.4h-7.4v-3.7V150h7.4h7.4v-3.7v-3.7h-7.4h-7.4V139v-3.7h7.4h7.4v-3.7v-3.7h-7.4h-7.4v-3.7v-3.7h7.4h7.4v-3.7v-3.7h-7.4h-7.4v-3.7v-3.7h-3.7h-3.7v-7.4V91h-3.7h-3.7v7.4v7.4h-3.7h-3.7v-7.4V91h-3.7h-3.7v7.4v7.4H128h-3.7v-7.4V91h-3.7h-3.7v7.4v7.4h-3.7h-3.7v-7.4V91h-3.7h-3.7L102.2,98.4L102.2,98.4z M153.8,139v25.8H128h-25.8V139v-25.8H128h25.8V139z"/><path fill="#000000" d="M116.9,139V150H128h11.1V139v-11.1H128h-11.1V139z M131.7,139v3.7H128h-3.7V139v-3.7h3.7h3.7V139z"/><path fill="#000000" d="M35.8,116.9v3.7h3.7h3.7v-3.7v-3.7h-3.7h-3.7V116.9z"/><path fill="#000000" d="M50.6,116.9v3.7h3.7h3.7v-3.7v-3.7h-3.7h-3.7V116.9L50.6,116.9z"/><path fill="#000000" d="M65.3,116.9v3.7H69h3.7v-3.7v-3.7H69h-3.7V116.9z"/><path fill="#000000" d="M183.3,116.9v3.7h3.7h3.7v-3.7v-3.7H187h-3.7V116.9z"/><path fill="#000000" d="M198.1,116.9v3.7h3.7h3.7v-3.7v-3.7h-3.7h-3.7V116.9L198.1,116.9z"/><path fill="#000000" d="M212.8,116.9v3.7h3.7h3.7v-3.7v-3.7h-3.7h-3.7V116.9z"/><path fill="#000000" d="M50.6,131.6v3.7h3.7h3.7v-3.7v-3.7h-3.7h-3.7V131.6L50.6,131.6z"/><path fill="#000000" d="M65.3,131.6v3.7H69h3.7v-3.7v-3.7H69h-3.7V131.6z"/><path fill="#000000" d="M183.3,131.6v3.7h3.7h3.7v-3.7v-3.7H187h-3.7V131.6z"/><path fill="#000000" d="M198.1,131.6v3.7h3.7h3.7v-3.7v-3.7h-3.7h-3.7V131.6L198.1,131.6z"/><path fill="#000000" d="M65.3,146.4v3.7H69h3.7v-3.7v-3.7H69h-3.7V146.4z"/><path fill="#000000" d="M183.3,146.4v3.7h3.7h3.7v-3.7v-3.7H187h-3.7V146.4z"/></g></g></g>
</svg>