<?xml version="1.0" encoding="utf-8"?>
<!-- Svg Vector Icons : http://www.onlinewebfonts.com/icon -->
<!DOCTYPE svg PUBLIC "-//W3C//DTD SVG 1.1//EN" "http://www.w3.org/Graphics/SVG/1.1/DTD/svg11.dtd">
<svg version="1.1" xmlns="http://www.w3.org/2000/svg" xmlns:xlink="http://www.w3.org/1999/xlink" x="0px" y="0px" viewBox="0 0 256 256" enable-background="new 0 0 256 256" xml:space="preserve">
<metadata> Svg Vector Icons : http://www.onlinewebfonts.com/icon </metadata>
<g><g><g><path fill="#000000" d="M151.7,10.6c-3.1,1.1-6,3.8-9.9,9.5l-3.3,4.8l35.1,25c34,24.3,35.1,25,35.9,24.2c0.5-0.5,2.4-3.2,4.3-6c3.8-5.7,4.8-8.6,4.3-12.8c-0.4-2.6-2-6.1-3.6-7.5c-1.5-1.4-51.1-35.9-53-36.9C159.3,9.8,154.4,9.7,151.7,10.6z"/><path fill="#000000" d="M126.5,43.9c-1.2,0.7-9.5,12.2-38,53c-20,28.6-37,53-37.7,54l-1.4,1.9l10.9,7.8c8.3,5.9,53.5,37.6,59.1,41.5c0.7,0.5,1.3-0.1,5.7-6.5c2.7-3.8,18.9-27.2,35.9-51.8c17.1-24.6,32-46,33.1-47.6c2.2-3.2,2.4-4.6,1.2-8.1c-1.1-3.1-3.7-5.8-10-10.1c-9.3-6.3-29.1-20-38.4-26.7c-4.8-3.5-9.7-6.6-10.8-7.1C133,43,128.5,42.8,126.5,43.9z"/><path fill="#000000" d="M41.8,206.9c-0.1,0.6-1.2,9.1-2.3,19c-2.3,18.9-2.3,20.1-0.3,20.1c0.6,0,35.2-17.8,36.4-18.7c0.3-0.3-2.5-3.6-5.7-6.8c-5.9-5.8-15.8-11.6-23.3-13.7C42.4,205.6,42.1,205.6,41.8,206.9z"/></g></g></g>
</svg>