<?xml version="1.0" encoding="utf-8"?>
<!-- Svg Vector Icons : http://www.onlinewebfonts.com/icon -->
<!DOCTYPE svg PUBLIC "-//W3C//DTD SVG 1.1//EN" "http://www.w3.org/Graphics/SVG/1.1/DTD/svg11.dtd">
<svg version="1.1" xmlns="http://www.w3.org/2000/svg" xmlns:xlink="http://www.w3.org/1999/xlink" x="0px" y="0px" viewBox="0 0 256 256" enable-background="new 0 0 256 256" xml:space="preserve">
<metadata> Svg Vector Icons : http://www.onlinewebfonts.com/icon </metadata>
<g><g><g><path fill="#000000" d="M49.6,24.7v14.8h-9.8c-5.4,0-11.1,0.2-12.7,0.5c-8.8,1.2-15.5,8.1-16.8,17c-0.3,1.9-0.4,29.2-0.3,68.7l0.1,65.6l1,2.5c2.4,5.8,6.5,9.8,12,11.8l3,1.1h32.3c30.6,0,32.3,0,32.1-0.8c-0.1-0.4-0.6-2.8-1-5.3c-2.1-14-0.9-27.5,3.5-41c10.5-32.1,38.4-55.4,72.1-60.2c6.1-0.9,18.2-0.9,24.4,0c4.6,0.6,12.3,2.4,15,3.4c0.7,0.3,1.5,0.5,1.8,0.5c0.3,0,0.4-8.9,0.3-24.4c-0.1-24.3-0.1-24.3-1.2-27c-1.5-3.7-5.8-8.2-9.5-10c-3.8-1.9-7-2.3-18.6-2.3h-9.8V24.7V9.9h-9.7H148v14.8v14.8h-39.5H69V24.7V9.9h-9.7h-9.7V24.7z M187.3,73.9v15h-79h-79v-15v-15h79h79L187.3,73.9L187.3,73.9z"/><path fill="#000000" d="M203.2,119.3c-2.4,1.1-73.4,72.1-74.1,74.1c-0.3,0.7-2.8,10.5-5.6,21.7c-5.4,21.7-5.6,22.5-3.8,26c1.1,2.1,4.5,4.5,7,4.9c1.5,0.2,6.1-0.8,23.2-5c11.8-3,22-5.7,22.8-6.2c2.2-1.4,71.6-71.2,72.5-72.9c1-2,1-6.4,0-8.4c-0.4-0.9-7.8-8.6-16.3-17.2c-16.4-16.5-18-17.8-22-17.8C205.9,118.4,204.2,118.8,203.2,119.3z M214.9,149.6c4.1,4.2,7.5,7.8,7.5,8c0,0.2-3.4,3.9-7.6,8.2l-7.6,7.8l-8-7.9l-8-8l7.8-7.9c4.3-4.3,7.9-7.9,8.1-7.9C207.3,142,210.8,145.4,214.9,149.6z M185.6,179.4l7.8,7.9l-15.6,15.3L162.2,218l-10.3,2.6c-5.7,1.4-10.3,2.5-10.3,2.4c0-0.1,1.2-4.8,2.5-10.4l2.6-10.3l15.3-15.4c8.5-8.4,15.4-15.3,15.6-15.3C177.8,171.5,181.4,175.1,185.6,179.4z"/></g></g></g>
</svg>