<?xml version="1.0" encoding="utf-8"?>
<!-- Svg Vector Icons : http://www.onlinewebfonts.com/icon -->
<!DOCTYPE svg PUBLIC "-//W3C//DTD SVG 1.1//EN" "http://www.w3.org/Graphics/SVG/1.1/DTD/svg11.dtd">
<svg version="1.1" xmlns="http://www.w3.org/2000/svg" xmlns:xlink="http://www.w3.org/1999/xlink" x="0px" y="0px" viewBox="0 0 256 256" enable-background="new 0 0 256 256" xml:space="preserve">
<metadata> Svg Vector Icons : http://www.onlinewebfonts.com/icon </metadata>
<g><g><g><path fill="#000000" d="M16.3,23.8c-2.2,0.9-4.6,3.5-5.6,5.7C10.1,31,10,47.7,10,128c0,95.5,0,96.8,1.1,98.9c1.4,2.7,4,4.7,7.1,5.5c1.8,0.4,21.3,0.5,67,0.4l64.5-0.2l-4.9-3.7c-2.7-2-6.7-5.6-8.9-7.9c-3.6-3.9-10.5-13.4-10.5-14.6c0-0.3-3.7-0.5-8.8-0.5h-8.8v-14.8v-14.8h4.4h4.4V172v-4.4h-4.4h-4.4v-14.8v-14.8h9h9l2.7-4c1.5-2.1,2.8-4.1,2.9-4.4c0.1-0.2-5.1-0.4-11.7-0.4h-11.9v-14.8V99.5h14.8h14.8v11.6v11.5l3.7-3.1c4.5-3.8,10.2-7.6,14.8-9.8l3.4-1.6V69.9c0-33.1-0.1-38.4-0.8-40.2c-1.1-2.6-2.7-4.3-5.3-5.7c-2-1-4.2-1-68.7-1C30.6,23.1,17.6,23.2,16.3,23.8z M137.5,63.5V78h-53h-53V63.5V48.9h53h53L137.5,63.5L137.5,63.5z M61.7,114.3v14.8H46.5H31.4v-14.8V99.5h15.1h15.1V114.3L61.7,114.3z M99.6,114.3v14.8l-15-0.1l-15-0.2l-0.2-14.7l-0.1-14.7h15.1h15.1V114.3z M61.7,152.8v14.8H46.5H31.4v-14.8v-14.8h15.1h15.1V152.8L61.7,152.8z M99.6,152.8v14.8H84.5H69.4v-14.8v-14.8h15.1h15.1V152.8z M61.7,191.2v14.8H46.5H31.4v-14.8v-14.8h15.1h15.1V191.2L61.7,191.2z M99.6,191.2v14.8H84.5H69.4v-14.8v-14.8h15.1h15.1V191.2z"/><path fill="#000000" d="M180.4,114.1c-6.5,1.2-8.5,1.6-12.5,3c-18.4,6.3-32.8,21.9-37.9,41.1c-1.3,4.8-1.5,6.3-1.5,14.7c0,8.4,0.2,9.9,1.5,14.7c5.6,20.9,21.7,37,42.4,42.6c4.9,1.3,6.4,1.5,14.8,1.5c8.4,0,9.9-0.2,14.7-1.5c20.9-5.6,37-21.7,42.6-42.6c1.3-4.7,1.4-6.5,1.5-14.4c0-7.8-0.2-9.7-1.3-14c-5.9-22.6-22.9-39.1-45.1-44.1C196.1,114.2,183.1,113.6,180.4,114.1z M198.8,129.4c15.1,4.2,26.8,15.7,31.7,31.1c1.1,3.6,1.3,5.3,1.3,12.4s-0.2,8.8-1.3,12.4c-4.6,14.6-15,25.4-29.2,30.3c-5.1,1.8-5.5,1.8-14,1.8c-8.5,0-9-0.1-14-1.8c-7.4-2.6-12.2-5.6-17.6-11c-6.6-6.7-10.6-13.8-12.5-22.8c-1.2-5.6-0.7-16.3,0.9-21.5c5.2-16.3,17.4-27.5,34.1-31.4C182.3,127.8,194.5,128.1,198.8,129.4z"/><path fill="#000000" d="M185.5,137.3c-0.4,0.2-0.7,2-0.8,4.2l-0.2,3.8l-2.1,0.4c-8.7,1.8-13.6,10.3-11.3,19.6c1,4.2,4.4,7,12.1,10.3c8.2,3.5,9.7,4.7,9.7,8.2c0,3.4-0.7,4.6-3.5,5.8c-2.9,1.3-9.8,1.4-14.3,0.2c-1.8-0.4-3.4-0.8-3.6-0.8c-0.5,0-2.3,5.8-2.3,7.6c0,0.9,0.6,1.4,3.6,2.3c1.9,0.6,5.4,1.3,7.6,1.5l4.1,0.4l0.2,3.9l0.2,3.9l3.1,0.2l3.1,0.2l0.2-4.5l0.2-4.5l3.1-1.3c4.5-1.8,6.8-3.8,8.7-7.6c1.4-2.9,1.6-3.9,1.6-7.8c0-3.7-0.2-4.9-1.4-7.3c-1.8-3.5-3.7-4.9-12.4-8.7c-7.6-3.4-9.3-4.8-9.3-7.8c0-4.3,3-5.9,9.9-5.4c2.4,0.2,5.2,0.7,6.3,1.2c1.1,0.4,2.2,0.8,2.5,0.8c0.4,0,1.9-4.6,2.3-7.1c0.1-1.1-0.2-1.4-2-2.1c-1.2-0.4-3.8-1-5.9-1.4l-3.7-0.6l-0.2-3.9l-0.2-3.9l-2.5-0.2C187.2,136.9,185.9,137,185.5,137.3z"/></g></g></g>
</svg>