<?xml version="1.0" encoding="utf-8"?>
<!-- Svg Vector Icons : http://www.onlinewebfonts.com/icon -->
<!DOCTYPE svg PUBLIC "-//W3C//DTD SVG 1.1//EN" "http://www.w3.org/Graphics/SVG/1.1/DTD/svg11.dtd">
<svg version="1.1" xmlns="http://www.w3.org/2000/svg" xmlns:xlink="http://www.w3.org/1999/xlink" x="0px" y="0px" viewBox="0 0 256 256" enable-background="new 0 0 256 256" xml:space="preserve">
<metadata> Svg Vector Icons : http://www.onlinewebfonts.com/icon </metadata>
<g><g><path fill="#000000" d="M206.7,10H49.3C27.7,10,10,27.7,10,49.3v157.3c0,21.7,17.7,39.3,39.3,39.3h157.3c21.7,0,39.3-17.7,39.3-39.3V49.3C246,27.7,228.3,10,206.7,10z M210.6,128h-38.4v103.3H128V128h-21.3V94.2H128V72.3c0-29.8,12.9-47.5,47.9-47.5h40.4v36.6h-33c-9.8,0-11,5.1-11,14.6l0,18.3h44.3L210.6,128z"/></g></g>
</svg>