<?xml version="1.0" encoding="utf-8"?>
<!-- Svg Vector Icons : http://www.onlinewebfonts.com/icon -->
<!DOCTYPE svg PUBLIC "-//W3C//DTD SVG 1.1//EN" "http://www.w3.org/Graphics/SVG/1.1/DTD/svg11.dtd">
<svg version="1.1" xmlns="http://www.w3.org/2000/svg" xmlns:xlink="http://www.w3.org/1999/xlink" x="0px" y="0px" viewBox="0 0 256 256" enable-background="new 0 0 256 256" xml:space="preserve">
<metadata> Svg Vector Icons : http://www.onlinewebfonts.com/icon </metadata>
<g> <path fill="#000000" d="M244,83.8c-2-1.4-4.8-0.8-6.1,1.2c-2.3,3.5-5.5,5-8.2,5.6c0-5.2-2.5-10.5-7.1-15.1 c-4.4-4.4-10.7-5.2-15.1-2.1c-3.3,2.4-5.8,7.6-2.3,14.6c2.2,4.4,6.2,7.8,11.1,9.9c-0.9,0.7-2,1.3-3.2,1.9c-2.7,1.3-5.4,2.1-8,2.6 c-12.7-25.9-45.7-44.4-84.5-44.4c-7.7,0-14.9,0.5-21.5,1.4c-11.1-7.2-31.7-16-52.3-14.7c1,8.6,6.2,19.6,13,27.5 c-13.1,8.1-21.6,19.2-25.8,32c-5,2.2-10.4,3.6-16.4,4c-4.4,0.3-7.7,4.1-7.4,8.5c0.8,11.4,4.2,30.7,17.5,35.8 c2.5,1,6.5,1.5,11.2,1.8c5.6,9.2,13.9,17.3,24.2,23.8c-1.7,8.6-3.8,17.2-6.4,25.9c-1.1,3.8,1.7,7.6,5.7,7.6h24.8 c2.5,0,4.7-1.5,5.5-3.8c2-5.3,3.6-10.7,5-16.2c7.4,1.5,15.1,2.3,23.1,2.3c9.3,0,18.2-1.1,26.6-3c-1.1,4.4-2.3,8.8-3.6,13.2 c-1.1,3.8,1.7,7.6,5.7,7.6H174c2.5,0,4.7-1.5,5.5-3.8c4.4-11.9,7.3-24.5,9.1-37.5c13.6-11.9,21.9-27.4,21.9-44.3 c0-5.2-0.8-10.3-2.3-15.1c2.9-0.6,5.8-1.6,8.7-3.1c4.8-2.4,7.8-5.2,9.7-7.8c7.6-0.2,14.5-3.8,18.6-9.9 C246.6,87.9,246.1,85.1,244,83.8z M67.4,105.2c-4.1,0-7.4-3.3-7.4-7.4s3.3-7.4,7.4-7.4s7.4,3.3,7.4,7.4S71.4,105.2,67.4,105.2z  M144.7,113.6c-3.1,1-6.4-0.6-7.5-3.7c-0.8-2.3-3.6-4.9-9.2-4.9c-4.3,0-6.9,2.8-7.1,5.6c-0.4,3.4,2.8,6.2,8.4,7.4 c13.4,2.8,18.5,12.1,17.7,20.1c-0.8,7.3-6,13.1-13,15.3v3.6c0,3.3-2.6,5.9-5.9,5.9s-5.9-2.6-5.9-5.9v-3.4 c-8.1-1.9-12.8-7.4-14.5-12.3c-1-3.1,0.6-6.4,3.7-7.5c3.1-1,6.4,0.6,7.5,3.7c0.8,2.4,4,4.9,9.2,4.9c4.3,0,6.9-2.8,7.1-5.6 c0.4-3.4-2.8-6.2-8.4-7.4c-13.4-2.8-18.5-12.1-17.7-20.1c0.8-7.3,6-13.1,13-15.3v-3.6c0-3.3,2.6-5.9,5.9-5.9c3.3,0,5.9,2.6,5.9,5.9 v3.4c8.1,1.9,12.8,7.4,14.5,12.3C149.5,109.2,147.8,112.5,144.7,113.6z M213.1,84c-0.9-1.8-0.9-3.1-0.4-3.4 c0.2-0.1,0.5-0.2,0.8-0.2c0.7,0,1.8,0.4,2.8,1.4c2.7,2.7,4.3,5.7,4.5,8.4C217.3,89,214.4,86.8,213.1,84z"/></g>
</svg>