<?xml version="1.0" encoding="utf-8"?>
<!-- Svg Vector Icons : http://www.onlinewebfonts.com/icon -->
<!DOCTYPE svg PUBLIC "-//W3C//DTD SVG 1.1//EN" "http://www.w3.org/Graphics/SVG/1.1/DTD/svg11.dtd">
<svg version="1.1" xmlns="http://www.w3.org/2000/svg" xmlns:xlink="http://www.w3.org/1999/xlink" x="0px" y="0px" viewBox="0 0 256 256" enable-background="new 0 0 256 256" xml:space="preserve">
<metadata> Svg Vector Icons : http://www.onlinewebfonts.com/icon </metadata>
<g> <path fill="#000000" d="M128,12.9c-65.2,0-118,52.8-118,118c0,52.1,33.8,96.4,80.7,112c5.9,1.1,8.1-2.5,8.1-5.7 c0-2.8-0.1-10.2-0.1-20.1c-32.8,7.1-39.7-15.8-39.7-15.8c-5.4-13.6-13.1-17.3-13.1-17.3c-10.7-7.3,0.8-7.2,0.8-7.2 c11.8,0.8,18.1,12.2,18.1,12.2c10.5,18,27.6,12.8,34.4,9.8c1.1-7.6,4.1-12.8,7.5-15.8c-26.2-3-53.7-13.1-53.7-58.3 c0-12.9,4.6-23.4,12.1-31.7c-1.3-3-5.3-15,1-31.2c0,0,9.9-3.2,32.4,12.1c9.4-2.6,19.5-3.9,29.5-4c10,0.1,20.1,1.4,29.5,4 c22.4-15.3,32.3-12.1,32.3-12.1c6.3,16.3,2.4,28.3,1.2,31.2c7.5,8.3,12.1,18.8,12.1,31.7c0,45.3-27.6,55.3-53.8,58.2 c4.1,3.5,8,10.8,8,21.8c0,15.8-0.1,28.5-0.1,32.3c0,3.1,2.1,6.8,8.1,5.6c47.2-15.5,81-59.7,81-111.8C246,65.8,193.2,12.9,128,12.9" /></g>
</svg>