<?xml version="1.0" encoding="utf-8"?>
<!-- Svg Vector Icons : http://www.onlinewebfonts.com/icon -->
<!DOCTYPE svg PUBLIC "-//W3C//DTD SVG 1.1//EN" "http://www.w3.org/Graphics/SVG/1.1/DTD/svg11.dtd">
<svg version="1.1" xmlns="http://www.w3.org/2000/svg" xmlns:xlink="http://www.w3.org/1999/xlink" x="0px" y="0px" viewBox="0 0 256 256" enable-background="new 0 0 256 256" xml:space="preserve">
<metadata> Svg Vector Icons : http://www.onlinewebfonts.com/icon </metadata>
<g><g><g><path fill="#000000" d="M111,10.7c-39.4,6.2-72,30.4-89.1,65.9c-34,70.4,8.6,153.9,85.7,168c11,2,30,2,40.9,0c58.2-10.6,100-62.8,97.4-121.5c-2.6-55.8-42.4-101.5-97.3-111.9C140.3,9.7,119.2,9.4,111,10.7z M136,45.1c10.8,2,19.2,10.8,21.1,21.8c3.1,18.5-14.9,34.2-33,28.9c-18.8-5.5-25-29.3-11.3-43.2c4-4.1,7.7-6.2,12.9-7.3C130.7,44.3,131.6,44.3,136,45.1z M153.1,116.7c1,0.8,1.1,3.8,1.2,34.6l0.2,33.8l5,0.3c5.6,0.4,7.3,1.3,8.9,5.1c1.9,4.4,0.8,9.2-2.8,11.9c-1.7,1.4-2.3,1.4-34.4,1.4H98.5l-2.4-2.2c-2-1.9-2.4-2.7-2.7-5.8c-0.3-3.9,0.6-6.4,3.1-8.7c1.1-1,2.7-1.4,6.5-1.6l5-0.3l0.2-25.1l0.1-25.1h-4.3c-2.6,0-5.1-0.4-6.3-1c-6-3.1-6-13.6,0.1-16.9c2-1.1,4.3-1.2,28.1-1.2C145.8,115.9,152.3,116.1,153.1,116.7z"/></g></g></g>
</svg>