<?xml version="1.0" encoding="utf-8"?>
<!-- Svg Vector Icons : http://www.onlinewebfonts.com/icon -->
<!DOCTYPE svg PUBLIC "-//W3C//DTD SVG 1.1//EN" "http://www.w3.org/Graphics/SVG/1.1/DTD/svg11.dtd">
<svg version="1.1" xmlns="http://www.w3.org/2000/svg" xmlns:xlink="http://www.w3.org/1999/xlink" x="0px" y="0px" viewBox="0 0 256 256" enable-background="new 0 0 256 256" xml:space="preserve">
<metadata> Svg Vector Icons : http://www.onlinewebfonts.com/icon </metadata>
<g><g><g><path fill="#000000" d="M119.4,10.2c-15.6,1.1-29.8,5.1-44.1,12.2c-12,6-20.2,12-30.1,21.7c-18.4,18.1-29.6,39.7-33.8,65.5c-1.7,9.9-1.8,26.3-0.2,35.8c4,25.4,14.6,46.8,32,64.7c23,23.6,52,36,84.6,36c19.6,0,36.2-3.8,52.9-12.2c12.2-6.1,19.5-11.4,29.4-20.9c10.6-10.2,17.3-19.3,23.8-32.3c8.4-16.7,12.2-33.1,12.2-52.6c0-32.9-12.2-61.8-36-84.9C185.8,19.7,153.3,7.8,119.4,10.2z M139.1,51.3c6.2,3.5,9,9.9,8.6,20.3c-0.3,7.3-1.5,10.6-5.1,14.1c-3.5,3.3-8,4.9-15.5,5.2c-10.1,0.4-15.5-2.3-19.1-9.6c-1.4-3-1.7-4.4-1.9-9.7c-0.5-12.2,3.1-18.1,12.8-21.4c2.7-0.9,5-1,10.2-0.9C135.2,49.4,136,49.6,139.1,51.3z M143.7,110.3l1.6,1.9v39.4c0,25.7-0.2,39.9-0.6,40.7c-0.4,0.7-1.2,1.5-1.8,1.9c-3.5,1.9-27.6,3.9-30.2,2.5c-0.7-0.4-1.5-1.7-1.9-3c-0.3-1.2-0.6-14.3-0.6-28.9c-0.1-19.3-0.2-27.3-0.8-29.2c-1.4-4.8-5.6-6.8-14.1-7.1l-4.6-0.1l0.1-5.2V118l3.7-1.1c13.9-4.2,35.1-8.4,42.9-8.5C141.9,108.3,142.1,108.4,143.7,110.3z"/></g></g></g>
</svg>