<?xml version="1.0" encoding="utf-8"?>
<!-- Svg Vector Icons : http://www.onlinewebfonts.com/icon -->
<!DOCTYPE svg PUBLIC "-//W3C//DTD SVG 1.1//EN" "http://www.w3.org/Graphics/SVG/1.1/DTD/svg11.dtd">
<svg version="1.1" xmlns="http://www.w3.org/2000/svg" xmlns:xlink="http://www.w3.org/1999/xlink" x="0px" y="0px" viewBox="0 0 256 256" enable-background="new 0 0 256 256" xml:space="preserve">
<metadata> Svg Vector Icons : http://www.onlinewebfonts.com/icon </metadata>
<g><g><path fill="#000000" d="M245.8,156.6c-1-13.9-5.7-27.4-13-39.1c-0.2-0.4-2.5-3.7-2.5-3.8c0.3-0.3,0.7-0.7,1-1c1.3-1.3,2.6-2.6,4-3.9c1.3-1.3,2.7-2.8,3-4.8c0.4-2.6-1.7-4.7-4.1-5.3c-11.7-2.7-23.3-5.5-34.9-8.2c-1.6-0.4-3.4-1-5.1-1.1c-4.3-0.3-5.2,3.4-4.4,6.9c1.2,5.4,2.4,10.9,3.6,16.3c1.4,6.6,2.9,13.1,4.4,19.7c0.5,2.3,1,5,3.5,6c4,1.5,7.5-3.3,10-5.7c0.5-0.6,1.1-1.1,1.7-1.7c14,22.5,11.4,52.6-6.5,72.2c-16.4,18-42.8,24.2-65.6,15.6c-21.3-8-36.4-28-38.4-50.6c-2.3-25.1,11.9-49.4,34.7-59.9c1.2-0.6,2.5-1.1,3.8-1.6c0.6-0.3,1.3-0.5,1.9-0.7c0.2-0.9,0.4-1.7,0.6-2.6c0.7-3.9,1-7.8,0.8-11.8c-0.2-3.5-0.8-7-1.7-10.5c-2.8,0.7-5.7,1.5-8.4,2.5c-10.6,3.8-20.4,9.7-28.7,17.3c-18.7,17.1-28.8,42.6-26.9,67.9c1.6,22.1,12.1,43,28.9,57.5c18.8,16.2,44.4,23.4,68.9,19.2c18.7-3.2,36-12.8,48.7-26.9C239.7,201.7,247.4,179,245.8,156.6"/><path fill="#000000" d="M118.1,13c-23.2-7-48.8-3.4-69.2,9.6C29,35.2,15.3,55.9,11.2,79.1c-2.3,13.1-1.3,26.6,2.6,39.3c2,6.4,4.8,12.6,8.2,18.3c0.5,0.8,5.1,7.3,4.9,7.5c-1.2,1.2-2.3,2.4-3.4,3.5c-2.7,2.8-6.9,7.7-1.9,10.6c1.5,0.9,3.5,1.1,5.3,1.5c6.9,1.4,13.9,2.9,20.8,4.3c4.8,1,9.5,2,14.3,3c4.8,1,7.3-1.7,6.2-6.4c-0.4-1.6-0.8-3.1-1.2-4.6c-1.8-7.1-3.5-14.3-5.3-21.4c-0.7-3-1.5-6-2.2-9c-0.5-1.9-0.8-3.9-2-5.4c-4.4-5.3-10.6,3.3-13.5,6.3c-14.7-22.3-12.7-52.7,5-72.8c15.9-17.9,41.5-24.7,64.2-17.1c21.3,7.2,37.1,26.4,40.1,48.8c3.4,24.9-9.7,49.8-31.9,61.2c-2,1-4.1,2-6.2,2.8c-1.6,0.6-1.5,1.3-1.9,2.9c-0.3,1.4-0.6,2.8-0.8,4.1c-0.9,6.2-0.5,12.5,0.9,18.6c22.1-5.3,41.5-19.7,53-39.3c12.5-21.6,14.9-48.2,6.2-71.6C163.5,39.7,143.1,20.5,118.1,13"/></g></g>
</svg>