<?xml version="1.0" encoding="utf-8"?>
<!-- Svg Vector Icons : http://www.onlinewebfonts.com/icon -->
<!DOCTYPE svg PUBLIC "-//W3C//DTD SVG 1.1//EN" "http://www.w3.org/Graphics/SVG/1.1/DTD/svg11.dtd">
<svg version="1.1" xmlns="http://www.w3.org/2000/svg" xmlns:xlink="http://www.w3.org/1999/xlink" x="0px" y="0px" viewBox="0 0 256 256" enable-background="new 0 0 256 256" xml:space="preserve">
<metadata> Svg Vector Icons : http://www.onlinewebfonts.com/icon </metadata>
<g><g><path fill="#000000" d="M10,10v236h236V10H10z M85.1,206.5H52.7V101.8h32.4V206.5z M68.7,88.1c-10.6,0-19.1-8.6-19.1-19.3c0-10.7,8.6-19.3,19.1-19.3c10.6,0,19.1,8.6,19.1,19.3C87.9,79.5,79.3,88.1,68.7,88.1z M206.4,206.5h-32.2c0,0,0-39.9,0-54.9c0-15.1-5.7-23.5-17.6-23.5c-13,0-19.7,8.8-19.7,23.5c0,16.1,0,54.9,0,54.9h-31.1V101.8h31.1v14.1c0,0,9.3-17.3,31.5-17.3s38.1,13.6,38.1,41.6C206.4,168.2,206.4,206.5,206.4,206.5z"/></g></g>
</svg>