<?xml version="1.0" encoding="utf-8"?>
<!-- Svg Vector Icons : http://www.onlinewebfonts.com/icon -->
<!DOCTYPE svg PUBLIC "-//W3C//DTD SVG 1.1//EN" "http://www.w3.org/Graphics/SVG/1.1/DTD/svg11.dtd">
<svg version="1.1" xmlns="http://www.w3.org/2000/svg" xmlns:xlink="http://www.w3.org/1999/xlink" x="0px" y="0px" viewBox="0 0 256 256" enable-background="new 0 0 256 256" xml:space="preserve">
<metadata> Svg Vector Icons : http://www.onlinewebfonts.com/icon </metadata>
<g><g><g><path fill="#000000" d="M33,25.3c-10.8,2.3-20.1,11.7-22.4,22.6C6.3,68.9,24.8,87.4,45.7,83C59,80.2,69,67.8,69,54.1C69,35.4,51.5,21.4,33,25.3z"/><path fill="#000000" d="M88.2,40c-1.9,0.8-3.8,3.2-4.2,5c-0.2,0.8-0.2,5.4-0.1,10.3c0.1,9.7,0.2,10.1,3.3,12.3l1.2,1H165h76.6l1.2-1c3.1-2.4,3.2-2.4,3.2-13.6c0-11.1,0-11.2-3.2-13.6c-1.2-1-1.3-1-77.3-1.1C103.1,39.4,89.3,39.5,88.2,40z"/><path fill="#000000" d="M33,99.2c-10.8,2.3-20.1,11.7-22.4,22.6c-4.4,21,14.1,39.5,35.1,35.1C59,154,69,141.6,69,128C69,109.2,51.5,95.2,33,99.2z"/><path fill="#000000" d="M88.2,113.8c-1.9,0.8-3.8,3.2-4.2,5c-0.2,0.8-0.2,5.4-0.1,10.3c0.1,9.7,0.2,10.1,3.3,12.3l1.2,1H165h76.6l1.2-1c3.1-2.4,3.2-2.4,3.2-13.6c0-11.1,0-11.2-3.2-13.6c-1.2-1-1.3-1-77.3-1.1C103.1,113.2,89.3,113.3,88.2,113.8z"/><path fill="#000000" d="M33,173c-10.8,2.3-20.1,11.7-22.4,22.6c-3.8,18.4,10.2,35.8,28.8,35.8c13.7,0,26.1-10,28.8-23.3C72.7,187,54.1,168.5,33,173z"/><path fill="#000000" d="M88.2,187.7c-1.9,0.8-3.8,3.2-4.2,5c-0.2,0.8-0.2,5.4-0.1,10.3c0.1,9.7,0.2,10.1,3.3,12.3l1.2,1H165h76.6l1.2-1c3.1-2.4,3.2-2.4,3.2-13.6s0-11.2-3.2-13.6c-1.2-1-1.3-1-77.3-1.1C103.1,187.1,89.3,187.2,88.2,187.7z"/></g></g></g>
</svg>