<?xml version="1.0" encoding="utf-8"?>
<!-- Svg Vector Icons : http://www.onlinewebfonts.com/icon -->
<!DOCTYPE svg PUBLIC "-//W3C//DTD SVG 1.1//EN" "http://www.w3.org/Graphics/SVG/1.1/DTD/svg11.dtd">
<svg version="1.1" xmlns="http://www.w3.org/2000/svg" xmlns:xlink="http://www.w3.org/1999/xlink" x="0px" y="0px" viewBox="0 0 256 256" enable-background="new 0 0 256 256" xml:space="preserve">
<metadata> Svg Vector Icons : http://www.onlinewebfonts.com/icon </metadata>
<g> <path fill="#000000" d="M10,113.3h59v29.5H10V113.3z M187,113.3h59v29.5h-59V113.3z M113.3,187h29.5v59h-29.5V187z M113.3,10h29.5 v59h-29.5V10z M34.1,55L55,34.1l41.7,41.7L75.8,96.7L34.1,55z M221.9,201L201,221.9l-41.7-41.7l20.9-20.9L221.9,201z M55,221.9 L34.1,201l41.7-41.7l20.9,20.9L55,221.9z M180.1,96.7l-20.9-20.9L201,34.1L221.9,55L180.1,96.7z"/></g>
</svg>