<?xml version="1.0" encoding="utf-8"?>
<!-- Svg Vector Icons : http://www.onlinewebfonts.com/icon -->
<!DOCTYPE svg PUBLIC "-//W3C//DTD SVG 1.1//EN" "http://www.w3.org/Graphics/SVG/1.1/DTD/svg11.dtd">
<svg version="1.1" xmlns="http://www.w3.org/2000/svg" xmlns:xlink="http://www.w3.org/1999/xlink" x="0px" y="0px" viewBox="0 0 256 256" enable-background="new 0 0 256 256" xml:space="preserve">
<metadata> Svg Vector Icons : http://www.onlinewebfonts.com/icon </metadata>
<g><g><path fill="#000000" d="M91.3,143c-8.3,0-15-6.7-15-15l0,0c0-8.3,6.7-15,15-15h102c8.3,0,15,6.7,15,15l0,0c0,8.3-6.7,15-15,15H91.3z"/><path fill="#000000" d="M176.3,204.8c0,4-1.3,8.3-4.6,10.1c-2.5,1.3-5.1,2.6-7.7,3.8c-14,6.2-29.6,9.7-46.2,9.7C58.3,228.4,10,183.4,10,128C10,72.6,58.3,27.6,117.8,27.6c17,0,33.2,3.7,47.5,10.2c2.5,1.1,4.9,2.4,7.3,3.7l0,0c4.3,2.4,4.6,6.2,4.6,10.1c0,7.8-6.8,14.1-15.2,14.1c-1.4,0-2.6,0.1-4-0.5c-2-1.1-4-2.1-6.1-3.1c-10.3-4.6-21.9-7.2-34.1-7.2c-43.3,0-78.4,32.7-78.4,73c0,40.3,35.1,73,78.4,73c12,0,23.3-2.5,33.5-7c2-0.9,3.9-1.8,5.8-2.8c1.2-0.6,2.6-0.5,4-0.5C169.5,190.7,176.3,197,176.3,204.8z"/><path fill="#000000" d="M187.3,87.1c0-2.5,1.4-4.8,3.8-6s5.1-0.8,7,0.8l41.3,32.5c4,3.2,6.6,8.1,6.6,13.7c0,5.5-2.6,10.5-6.6,13.7l-40.9,32.2c-2,1.6-4.8,2-7.3,0.8c-2.5-1.2-3.9-3.7-3.9-6.2L187.3,87.1L187.3,87.1z"/></g></g>
</svg>