<?xml version="1.0" encoding="utf-8"?>
<!-- Svg Vector Icons : http://www.onlinewebfonts.com/icon -->
<!DOCTYPE svg PUBLIC "-//W3C//DTD SVG 1.1//EN" "http://www.w3.org/Graphics/SVG/1.1/DTD/svg11.dtd">
<svg version="1.1" xmlns="http://www.w3.org/2000/svg" xmlns:xlink="http://www.w3.org/1999/xlink" x="0px" y="0px" viewBox="0 0 256 256" enable-background="new 0 0 256 256" xml:space="preserve">
<metadata> Svg Vector Icons : http://www.onlinewebfonts.com/icon </metadata>
<g><g><g><path fill="#000000" d="M98.2,11.6c-4.1,2-6.6,7.5-5,10.9c0.6,1.3,4.7,6.9,9.1,12.3c4.3,5.4,7.9,10,7.9,10.5c0,0.4-0.7,0.6-1.7,0.6c-3.9,0-21.1,10-27.3,15.9C72.6,70,66.7,79,54.8,103c-40.9,82.3-37.1,135.7,10.1,141.9c11.4,1.4,114.7,1.4,126.2,0c48.4-6.3,51-61.9,7.2-148c-14-27.4-23.1-38.2-39.7-46.5c-5.1-2.5-10.1-4.7-11-4.7c-1,0-1.7-0.2-1.7-0.6c0-0.5,3.6-5.1,7.9-10.5c9.4-11.6,10.6-14.2,8.6-18.5C159.6,10.5,157,10,128,10C108.7,10,100.4,10.5,98.2,11.6z M132.9,31.2c-0.6,1.2-2,2.9-3,3.8c-2.1,1.7-4.6,0.4-6.8-3.8c-1.1-1.9-0.6-2.1,4.9-2.1C133.5,29.1,134,29.3,132.9,31.2z M148.8,65.8c14.4,6.8,23.9,18.8,38,49.1c25.5,53.9,31.6,95.8,15.6,107c-7.3,5-9.1,5.1-74.4,5.1c-44.4,0-64-0.4-66.9-1.4c-12-4.1-16-11.3-15.9-29.6c0.1-20.4,8-47.6,23.4-79.9c14.2-30.1,23.7-42.9,36.5-49.4c8.8-4.5,13.8-5.5,25.5-5C139.1,62.1,142.3,62.8,148.8,65.8z"/><path fill="#000000" d="M125.6,101.8c0,5.2-0.4,6-2.4,6c-3.7,0-11.3,4.3-14.1,7.8c-4.3,5.5-5.5,10.9-3.9,18c1.8,8.1,7.3,13,19.4,17.8c10.6,4.2,14.1,7.4,14.1,13.1c0,6-3.3,8.9-10.1,8.9c-6.4,0-11.3-3.9-11.3-8.9c0-2.9-0.2-3-7.9-3h-8l0.8,5c1.6,9.4,8.1,16.1,18.2,18.2c3.5,0.7,3.8,1.2,4.2,5.7c0.4,4.7,0.6,5,4.3,5.4c3.8,0.4,3.8,0.4,3.8-4.9s0-5.4,5.4-6.7c13-3.3,19.3-16,14.2-28.9c-2.5-6-8.5-10.5-19.7-14.8c-8.9-3.5-13-7.4-13-12.5c0-8.6,10.6-12.2,16.2-5.5c1.6,1.8,2.9,4.3,2.9,5.6c0,2,0.8,2.3,7.9,2.3h7.9l-0.8-4.4c-1.7-9.2-6.6-14.7-15-17.3c-4.5-1.3-4.7-1.4-4.7-7.2v-5.7h-4.2h-4.2V101.8z"/></g></g></g>
</svg>