<?xml version="1.0" encoding="utf-8"?>
<!-- Svg Vector Icons : http://www.onlinewebfonts.com/icon -->
<!DOCTYPE svg PUBLIC "-//W3C//DTD SVG 1.1//EN" "http://www.w3.org/Graphics/SVG/1.1/DTD/svg11.dtd">
<svg version="1.1" xmlns="http://www.w3.org/2000/svg" xmlns:xlink="http://www.w3.org/1999/xlink" x="0px" y="0px" viewBox="0 0 256 256" enable-background="new 0 0 256 256" xml:space="preserve">
<metadata> Svg Vector Icons : http://www.onlinewebfonts.com/icon </metadata>
<g><g><g><path fill="#000000" d="M74.5,17.6c-13.3,7.4-20.9,13-30.1,22.2c-19.1,19-30.7,43.2-33.9,70.5c-0.7,5.8-0.7,19.9,0,25.6c3.2,26.5,14.4,50.4,32.6,69.4c18.1,18.9,41.9,31.2,68.3,35.2c7,1.1,20.8,1.4,28.2,0.8c14.3-1.3,27.2-4.9,40.7-11.4c11.9-5.7,21.3-12.2,30.9-21.5c14-13.6,24.1-29.5,30.1-47.4c1.8-5.4,5.1-17.2,4.7-17.2c-0.1,0-3.6,1.8-7.7,4.1c-18.7,10.1-34.9,14.4-54.2,14.4c-58,0-105.5-44.7-109.1-102.5c-0.7-12.2,0.6-24.3,4.3-37.8c1-3.9,1.8-7.2,1.8-7.4C80.9,14.2,78,15.7,74.5,17.6z"/></g></g></g>
</svg>