<?xml version="1.0" encoding="utf-8"?>
<!-- Svg Vector Icons : http://www.onlinewebfonts.com/icon -->
<!DOCTYPE svg PUBLIC "-//W3C//DTD SVG 1.1//EN" "http://www.w3.org/Graphics/SVG/1.1/DTD/svg11.dtd">
<svg version="1.1" xmlns="http://www.w3.org/2000/svg" xmlns:xlink="http://www.w3.org/1999/xlink" x="0px" y="0px" viewBox="0 0 256 256" enable-background="new 0 0 256 256" xml:space="preserve">
<metadata> Svg Vector Icons : http://www.onlinewebfonts.com/icon </metadata>
<g><g><g><path fill="#000000" d="M11.5,11.5L10,13v115v115l1.5,1.5L13,246h115h115l1.5-1.5l1.5-1.5v-87.8V67.5l-28.8-28.7L188.5,10h-87.8H13L11.5,11.5z M181.5,46c0,25.3,0.1,26.2,1.2,27.3s2,1.2,27.3,1.2h26.1v80.8v80.8H128H19.8V128V19.8h80.8h80.8V46z M210.4,46l18.7,18.7h-18.9h-18.9V46c0-10.3,0.1-18.7,0.2-18.7C191.5,27.2,200,35.6,210.4,46z"/><path fill="#000000" d="M42.9,80.2c-3.1,1.7-3.7,5.2-1.2,7.6l1.5,1.5h49.5c27.2,0,49.9-0.2,50.5-0.4c1.5-0.6,2.8-3.7,2.4-5.5c-0.2-0.9-1.1-2.1-1.9-2.8c-1.5-1.2-2.6-1.2-50.5-1.2C58.8,79.5,43.7,79.7,42.9,80.2z"/><path fill="#000000" d="M41.7,108.6c-1,0.9-1.5,2.2-1.5,3.4s0.6,2.5,1.5,3.4l1.5,1.5h49.7c52.5-0.1,50.8,0.1,52.3-2.9c1.1-2.1,0.9-3.2-1-5.2l-1.8-1.8H92.7H43.1L41.7,108.6z"/><path fill="#000000" d="M41.7,136.3c-1,0.9-1.5,2.2-1.5,3.4s0.6,2.5,1.5,3.4l1.5,1.5H128h84.9l1.5-1.5c2-2,2-4.8,0-6.8l-1.5-1.5H128H43.1L41.7,136.3z"/><path fill="#000000" d="M41.7,164c-1.8,1.8-2,4.5-0.4,6.5l1.2,1.5H128h85.5l1.2-1.5c1.6-2,1.5-4.7-0.4-6.5l-1.5-1.5H128H43.1L41.7,164z"/><path fill="#000000" d="M41.5,191.5c-2.3,2.4-1.7,6,1.2,7.5c2.6,1.4,168.1,1.4,170.7,0c3.1-1.5,3.5-5.6,0.9-7.6l-1.7-1.3h-84.9H42.8L41.5,191.5z"/></g></g></g>
</svg>