<?xml version="1.0" encoding="utf-8"?>
<!-- Svg Vector Icons : http://www.onlinewebfonts.com/icon -->
<!DOCTYPE svg PUBLIC "-//W3C//DTD SVG 1.1//EN" "http://www.w3.org/Graphics/SVG/1.1/DTD/svg11.dtd">
<svg version="1.1" xmlns="http://www.w3.org/2000/svg" xmlns:xlink="http://www.w3.org/1999/xlink" x="0px" y="0px" viewBox="0 0 256 256" enable-background="new 0 0 256 256" xml:space="preserve">
<metadata> Svg Vector Icons : http://www.onlinewebfonts.com/icon </metadata>
<g><g><g><path fill="#000000" d="M215.8,26.3c-5.2,1.1-9.8,3.6-13.6,7.4c-3,3-4.7,5.6-6.4,10.1l-1.2,3l-0.1,57.7l-0.1,57.8h3.7h3.7v-1.6c0-2.5,1.7-7.2,3.5-9.6c3.4-4.6,8.9-7.3,15-7.3c11.1,0,19,8.5,18.3,19.5c-0.1,2-0.6,4.7-1,5.8c-1.1,3-3.8,6.4-6.7,8.4c-4.9,3.4,3.4,3.1-110.7,3.1H17.4V118V55.4h84.8H187v-3.7V48H98.5H10V118v70.1l107.5-0.1l107.5-0.1l2.7-1.1c8.2-3.1,14.2-9.2,16.9-17l1.1-3.1V107c0-57.1,0-59.8-0.9-62.2c-2.1-6.3-6.6-12.1-11.6-15C228.1,26.7,220.7,25.2,215.8,26.3z M226.2,34.2c5.5,1.8,9.7,5.9,11.5,11.5c0.9,2.8,0.9,4.1,0.9,50.8v47.9l-2.6-2c-5.2-4-9.6-5.6-15.8-5.6s-10.6,1.6-15.8,5.6l-2.7,2V96.5c0-46.7,0-48,0.9-50.8C205.7,36,216.1,31,226.2,34.2z"/><path fill="#000000" d="M39.5,71.9v5.5H34h-5.5v3.7v3.7H34h5.5v5.5v5.5H34h-5.5v3.7v3.7H34h5.5v5.5v5.5H34h-5.5v3.7v3.7H34h5.5v5.5v5.5H34h-5.5v3.7v3.7H34h5.5v5.5v5.5H34h-5.5v3.7v3.7H34h5.5v5.5v5.5h3.7h3.7v-5.5v-5.5h5.5h5.5v5.5v5.5h3.7h3.7v-5.5v-5.5h5.5h5.5v5.5v5.5h3.7h3.7v-5.5v-5.5h5.5h5.5v5.5v5.5h3.7h3.7v-5.5v-5.5h5.5h5.5v5.5v5.5h3.7h3.7v-5.5v-5.5h5.5h5.5v5.5v5.5h3.7h3.7v-5.5v-5.5h5.5h5.5v5.5v5.5h3.7h3.7v-5.5v-5.5h5.5h5.5v5.5v5.5h3.7h3.7v-5.5v-5.5h5.5h5.5v-3.7v-3.7h-5.5h-5.5v-5.5v-5.5h5.5h5.5v-3.7v-3.7h-5.5h-5.5v-5.5v-5.5h5.5h5.5V118v-3.7h-5.5h-5.5v-5.5v-5.5h5.5h5.5v-3.7v-3.7h-5.5h-5.5v-5.5v-5.5h5.5h5.5v-3.7v-3.7h-5.5h-5.5v-5.5v-5.5h-3.7h-3.7v5.5v5.5H163h-5.5v-5.5v-5.5h-3.7h-3.7v5.5v5.5h-5.5h-5.5v-5.5v-5.5h-3.7h-3.7v5.5v5.5h-5.5h-5.5v-5.5v-5.5h-3.7h-3.7v5.5v5.5h-5.5h-5.5v-5.5v-5.5h-3.7h-3.7v5.5v5.5h-5.5h-5.5v-5.5v-5.5h-3.7h-3.7v5.5v5.5h-5.5h-5.5v-5.5v-5.5h-3.7h-3.7v5.5v5.5h-5.5h-5.5v-5.5v-5.5h-3.7h-3.7V71.9z M57.9,90.4v5.5h-5.5h-5.5v-5.5v-5.5h5.5h5.5V90.4z M76.4,90.4v5.5h-5.5h-5.5v-5.5v-5.5h5.5h5.5V90.4z M94.8,90.4v5.5h-5.5h-5.5v-5.5v-5.5h5.5h5.5V90.4z M113.3,90.4v5.5h-5.5h-5.5v-5.5v-5.5h5.5h5.5V90.4z M131.7,90.4v5.5h-5.5h-5.5v-5.5v-5.5h5.5h5.5V90.4z M150.1,90.4v5.5h-5.5h-5.5v-5.5v-5.5h5.5h5.5V90.4z M168.6,90.4v5.5H163h-5.5v-5.5v-5.5h5.5h5.5L168.6,90.4L168.6,90.4z M57.9,108.8v5.5h-5.5h-5.5v-5.5v-5.5h5.5h5.5V108.8z M76.4,108.8v5.5h-5.5h-5.5v-5.5v-5.5h5.5h5.5V108.8z M94.8,108.8v5.5h-5.5h-5.5v-5.5v-5.5h5.5h5.5V108.8z M113.3,108.8v5.5h-5.5h-5.5v-5.5v-5.5h5.5h5.5V108.8z M131.7,108.8v5.5h-5.5h-5.5v-5.5v-5.5h5.5h5.5V108.8z M150.1,108.8v5.5h-5.5h-5.5v-5.5v-5.5h5.5h5.5V108.8z M168.6,108.8v5.5H163h-5.5v-5.5v-5.5h5.5h5.5L168.6,108.8L168.6,108.8z M57.9,127.3v5.5h-5.5h-5.5v-5.5v-5.5h5.5h5.5V127.3z M76.4,127.3v5.5h-5.5h-5.5v-5.5v-5.5h5.5h5.5V127.3z M94.8,127.3v5.5h-5.5h-5.5v-5.5v-5.5h5.5h5.5V127.3z M113.3,127.3v5.5h-5.5h-5.5v-5.5v-5.5h5.5h5.5V127.3z M131.7,127.3v5.5h-5.5h-5.5v-5.5v-5.5h5.5h5.5V127.3z M150.1,127.3v5.5h-5.5h-5.5v-5.5v-5.5h5.5h5.5V127.3z M168.6,127.3v5.5H163h-5.5v-5.5v-5.5h5.5h5.5L168.6,127.3L168.6,127.3z M57.9,145.7v5.5h-5.5h-5.5v-5.5v-5.5h5.5h5.5V145.7z M76.4,145.7v5.5h-5.5h-5.5v-5.5v-5.5h5.5h5.5V145.7z M94.8,145.7v5.5h-5.5h-5.5v-5.5v-5.5h5.5h5.5V145.7z M113.3,145.7v5.5h-5.5h-5.5v-5.5v-5.5h5.5h5.5V145.7z M131.7,145.7v5.5h-5.5h-5.5v-5.5v-5.5h5.5h5.5V145.7z M150.1,145.7v5.5h-5.5h-5.5v-5.5v-5.5h5.5h5.5V145.7z M168.6,145.7v5.5H163h-5.5v-5.5v-5.5h5.5h5.5L168.6,145.7L168.6,145.7z"/><path fill="#000000" d="M10,212.8V230h118h118v-17.3v-17.3H128H10V212.8z M238.6,213.9V225h-14.8h-14.8v-3.7v-3.7h-3.7h-3.7v3.7v3.7h-3.7h-3.7v-3.7v-3.7h-3.7H187v3.7v3.7h-3.7h-3.7v-3.7v-3.7h-3.7h-3.7v3.7v3.7h-3.7h-3.7v-3.7v-3.7h-3.7h-3.7v3.7v3.7h-3.7h-3.7v-3.7v-3.7h-3.7h-3.7v3.7v3.7h-3.7h-3.7v-3.7v-3.7h-3.7H128v3.7v3.7h-3.7h-3.7v-3.7v-3.7h-3.7h-3.7v3.7v3.7h-3.7h-3.7v-3.7v-3.7h-3.7h-3.7v3.7v3.7h-3.7h-3.7v-3.7v-3.7h-3.7h-3.7v3.7v3.7h-3.7h-3.7v-3.7v-3.7h-3.7H69v3.7v3.7h-3.7h-3.7v-3.7v-3.7h-3.7h-3.7v3.7v3.7h-3.7h-3.7v-3.7v-3.7h-3.7h-3.7v3.7v3.7h-3.7h-3.7v-3.7v-3.7h-3.7h-3.7v3.7v3.7h-3.7h-3.7v-11.1v-11.1H128h110.6V213.9z"/><path fill="#000000" d="M223.9,213.9v3.7h3.7h3.7v-3.7v-3.7h-3.7h-3.7V213.9z"/></g></g></g>
</svg>