<?xml version="1.0" encoding="utf-8"?>
<!-- Svg Vector Icons : http://www.onlinewebfonts.com/icon -->
<!DOCTYPE svg PUBLIC "-//W3C//DTD SVG 1.1//EN" "http://www.w3.org/Graphics/SVG/1.1/DTD/svg11.dtd">
<svg version="1.1" xmlns="http://www.w3.org/2000/svg" xmlns:xlink="http://www.w3.org/1999/xlink" x="0px" y="0px" viewBox="0 0 256 256" enable-background="new 0 0 256 256" xml:space="preserve">
<metadata> Svg Vector Icons : http://www.onlinewebfonts.com/icon </metadata>
<g><g><g><path fill="#000000" d="M102.9,11C88.3,14.1,77.1,26.1,75,40.9c-0.2,1.9-0.5,6.4-0.5,9.9v6.4l-17.6,0.1c-20,0.2-20.1,0.2-27.6,3.9c-3.5,1.8-5.1,2.9-8.3,6.1c-6.1,6.1-9.4,12.5-10.5,20.9c-0.4,2.4-0.5,28.3-0.5,80.6v76.9h118h118l-0.1-79.2c-0.1-73-0.2-79.4-0.9-82c-2.9-10.6-9.4-18.8-18.4-23.3c-7.3-3.6-7.5-3.6-27.7-3.9L181,57.2V51c0-7.4-0.6-12.2-2.1-16.8C175,22.5,164.7,13.5,152.3,11C147.3,9.9,107.8,10,102.9,11z M148.4,34.2c3,0.8,6,3.2,7.4,5.9c1.2,2.4,1.3,2.7,1.3,9.8v7.3h-29.5H98v-5.5c0-6.7,0.6-9.8,2.2-12.5c1.3-2.2,5.2-4.8,7.4-5.2C110.4,33.7,146.8,33.8,148.4,34.2z M18.3,106.6c4.1,4.1,9,6.8,15.5,8.4l4.1,1.1H128h90.1l4.1-1.1c6.6-1.7,11.2-4.2,15.4-8.3c2.7-2.7,4-4.4,5.2-7c1.9-4,2.1-4,0.7,0c-3.9,12-12.9,22.4-23,26.4c-4.6,1.8-7.9,2.2-21.3,2.2H187V140v11.8h-11.8h-11.8V140v-11.8H128H92.5V140v11.8H80.8H69V140v-11.8H56.7c-6.8,0-13.7-0.2-15.3-0.5c-12.5-2-24.2-13.4-29-28c-1.3-4.1-1.2-4.1,0.7,0C14.3,102.3,15.6,104,18.3,106.6z"/></g></g></g>
</svg>