<?xml version="1.0" encoding="utf-8"?>
<!-- Svg Vector Icons : http://www.onlinewebfonts.com/icon -->
<!DOCTYPE svg PUBLIC "-//W3C//DTD SVG 1.1//EN" "http://www.w3.org/Graphics/SVG/1.1/DTD/svg11.dtd">
<svg version="1.1" xmlns="http://www.w3.org/2000/svg" xmlns:xlink="http://www.w3.org/1999/xlink" x="0px" y="0px" viewBox="0 0 256 256" enable-background="new 0 0 256 256" xml:space="preserve">
<metadata> Svg Vector Icons : http://www.onlinewebfonts.com/icon </metadata>
<g><g><path fill="#000000" d="M31.5,240c5.9-21.8,11.8-43.4,27.5-61.2c26.3-29.7,70.1-39.9,107.6-24.1c35.2,14.8,61,54.7,57.7,91.3c-64.1,0-128.4,0-192.8,0C31.5,244,31.5,242,31.5,240z"/><path fill="#000000" d="M136.1,10c4.3,1.4,8.6,2.8,12.9,4.2c29.8,9.4,47.8,39.4,42,70.2c-5.2,27.6-33,49.6-61.8,48.9c-30.6-0.7-57.4-24.8-60.3-54.1c-3-30.9,16.3-58.3,46.4-65.9c3.9-1,7.8-2.2,11.7-3.3C129.9,10,133,10,136.1,10z"/></g></g>
</svg>