<?xml version="1.0" encoding="utf-8"?>
<!-- Svg Vector Icons : http://www.onlinewebfonts.com/icon -->
<!DOCTYPE svg PUBLIC "-//W3C//DTD SVG 1.1//EN" "http://www.w3.org/Graphics/SVG/1.1/DTD/svg11.dtd">
<svg version="1.1" xmlns="http://www.w3.org/2000/svg" xmlns:xlink="http://www.w3.org/1999/xlink" x="0px" y="0px" viewBox="0 0 256 256" enable-background="new 0 0 256 256" xml:space="preserve">
<metadata> Svg Vector Icons : http://www.onlinewebfonts.com/icon </metadata>
<g><g><path fill="#000000" d="M78.2,152.9L78.2,152.9C78.2,152.8,78.2,152.8,78.2,152.9C78.2,152.8,78.2,152.8,78.2,152.9z"/><path fill="#000000" d="M78.2,152.9C78.2,152.9,78.2,152.9,78.2,152.9C78.2,152.9,78.2,152.9,78.2,152.9L78.2,152.9z"/><path fill="#000000" d="M78.2,152.7c0,0,0,0.1,0,0.1C78.2,152.7,78.2,152.7,78.2,152.7z"/><path fill="#000000" d="M201.8,24.8h-44.3v29.5H187l27.6,88.5h-42.3l-14.7,29.5h-59l-14.7-29.5H37.6L69,54.3h29.5V24.8H54.2L10,141.3v90h236v-90L201.8,24.8L201.8,24.8z M175.5,83.7l-45.1-45.1L85.1,83.7h28.2v59h29.5v-59H175.5L175.5,83.7z"/></g></g>
</svg>