<?xml version="1.0" encoding="utf-8"?>
<!-- Svg Vector Icons : http://www.onlinewebfonts.com/icon -->
<!DOCTYPE svg PUBLIC "-//W3C//DTD SVG 1.1//EN" "http://www.w3.org/Graphics/SVG/1.1/DTD/svg11.dtd">
<svg version="1.1" xmlns="http://www.w3.org/2000/svg" xmlns:xlink="http://www.w3.org/1999/xlink" x="0px" y="0px" viewBox="0 0 256 256" enable-background="new 0 0 256 256" xml:space="preserve">
<metadata> Svg Vector Icons : http://www.onlinewebfonts.com/icon </metadata>
<g> <path fill="#000000" d="M115.5,199.5c-39.5,0-71.5-32-71.5-71.5c0-39.5,32-71.5,71.5-71.5c21.4,0,40.6,9.5,53.7,24.4h40.5 c-17.3-34.5-53-58.3-94.3-58.3C57.2,22.5,10,69.8,10,128c0,58.2,47.2,105.5,105.5,105.5c37.6,0,70.5-19.7,89.2-49.4h-44.9 C147.6,193.7,132.2,199.5,115.5,199.5z"/> <path fill="#000000" d="M188,135.3l58-54.8H129.9L188,135.3z"/></g>
</svg>