<?xml version="1.0" encoding="utf-8"?>
<!-- Svg Vector Icons : http://www.onlinewebfonts.com/icon -->
<!DOCTYPE svg PUBLIC "-//W3C//DTD SVG 1.1//EN" "http://www.w3.org/Graphics/SVG/1.1/DTD/svg11.dtd">
<svg version="1.1" xmlns="http://www.w3.org/2000/svg" xmlns:xlink="http://www.w3.org/1999/xlink" x="0px" y="0px" viewBox="0 0 256 256" enable-background="new 0 0 256 256" xml:space="preserve">
<metadata> Svg Vector Icons : http://www.onlinewebfonts.com/icon </metadata>
<g><g><path fill="#000000" d="M246,232c0-35.8,0-129.6,0-145.2c0-15.8-7.3-20-12.3-24.8c-10.1-9.6-29.6-29.2-40.8-40.2c-10.6-10.4-22.8-10.7-22.8-10.7s-110.5,0-147.3,0C13.2,11.1,10,18.6,10,23c0,52.2,0,192.6,0,206.9s10,15.1,15,15.1c53,0,190.9,0,206.4,0C242.7,244.9,246,237.1,246,232z M107.8,34.6c0-3.9,3.5-3.6,5.1-3.6c7.8,0,23.2-0.1,30.9,0c3.6,0,3.9,3.6,3.9,3.6s0.3,44.3,0,49.6c-0.3,5.3-3.9,5.1-3.9,5.1s-27,0-31.2,0s-4.7-4.2-4.7-4.2S107.8,47.4,107.8,34.6z M187.1,225.1H68.4V167h118.7V225.1z M226.4,225.4h-20.2v-67.2c0,0-2.1-10.4-11.6-10.4c-9.5,0-133.1,0-133.1,0s-12.2,1.8-12.2,12.2c0,10.4,0,65.4,0,65.4H29.3V30.7h19.9v65.7c0,0,2.1,11.9,12.5,11.9c10.4,0,91.8,0,91.8,0s13.7,0.6,13.7-12.2c0-12.8,0-65.4,0-65.4s5.3-0.6,8.3,2.4c12.2,12.2,35.8,34.9,47,46.1c1.9,1.9,3.6,2.1,3.9,9.8C226.7,96.7,226.4,225.4,226.4,225.4z"/></g></g>
</svg>