<?xml version="1.0" encoding="utf-8"?>
<!-- Svg Vector Icons : http://www.onlinewebfonts.com/icon -->
<!DOCTYPE svg PUBLIC "-//W3C//DTD SVG 1.1//EN" "http://www.w3.org/Graphics/SVG/1.1/DTD/svg11.dtd">
<svg version="1.1" xmlns="http://www.w3.org/2000/svg" xmlns:xlink="http://www.w3.org/1999/xlink" x="0px" y="0px" viewBox="0 0 256 256" enable-background="new 0 0 256 256" xml:space="preserve">
<metadata> Svg Vector Icons : http://www.onlinewebfonts.com/icon </metadata>
<g><g><g><path fill="#000000" d="M33.2,39.1c-0.2,0.3-4.4,10-9.2,21.6c-4.8,11.5-9.9,23.7-11.4,27.2L10,94.1v48.7c0,48.7,0,48.7,1.1,51.6c0.5,1.6,1.8,3.6,2.7,4.5l1.6,1.6h72.2h72.3l4,3.9c6.4,6.1,14.3,10.2,23.4,12.2c5.6,1.2,16.6,1.2,21.4,0c17.7-4.4,31.3-18,36-36c1.8-6.7,1.9-16,0.3-22.6c-1.5-6.1-5.6-14.3-9.8-19.4c-7.6-9.4-18.4-16.1-29.8-18.5l-1.4-0.3l0-14.9L204,90l-10.7-25.1c-5.9-13.8-10.9-25.4-11.2-25.7c-0.4-0.4-15.9-0.6-74.5-0.6C49.1,38.5,33.6,38.7,33.2,39.1z M175,51.2c0.4,1,4.3,10.6,8.7,21.3c4.4,10.7,7.9,19.6,7.9,19.8c0,0.2-37.8,0.4-83.9,0.4s-83.9-0.1-83.9-0.3s3.9-9.9,8.7-21.7l8.7-21.3h66.6h66.5L175,51.2z M208.7,131.4c6.9,2,12.1,5.2,17.1,10.6c12.4,13.3,13.3,32.8,2.6,48.6c-4.9,7.2-12.5,12.7-21,15.3c-4.7,1.4-12.4,1.6-17.2,0.3c-13.2-3.4-24.4-15.1-28.1-29.2c-1.5-5.6-1.5-13.8,0-19.1c4.9-17.6,20.7-29.1,38.4-28C202.8,130.1,206.5,130.7,208.7,131.4z M46.7,157.6c4.3,2.1,6.3,6.7,4.9,11.3c-2,6.8-10.7,9.3-15.9,4.4c-2.7-2.5-3.7-7.4-2.4-10.8c0.8-2,4.3-5.2,6.1-5.6c0.8-0.1,1.6-0.3,1.9-0.4C42.1,156.1,45.1,156.8,46.7,157.6z M79.8,158c6.6,4,5.7,14-1.5,17.1c-3.9,1.6-8.6,0.2-11.4-3.3c-1.3-1.6-1.5-2.4-1.7-5.2c-0.1-3,0-3.5,1.3-5.6C69.6,156.3,75,155.1,79.8,158z"/><path fill="#000000" d="M193.6,143.7c-4.6,3.2-6.5,3.7-12.8,4c-6.4,0.3-7.6,0.7-8.4,3.5c-0.2,1-0.5,7.3-0.5,14.2c0,11.4,0.1,12.6,1,14.4c3.9,7.6,18.1,18.4,24.4,18.4c4.4,0,14-6.5,20.2-13.8c5.2-6.1,5.1-5.8,5.1-19.9c0-14.9,0.3-14-6.4-14.7c-2.7-0.2-5.9-0.9-7.1-1.4c-2.1-0.8-3.6-1.7-9.5-5.6C197.7,141.5,196.4,141.7,193.6,143.7z M203.4,156c1.3,0.6,3.9,1.5,5.7,2l3.3,0.8l-0.4,8.7c-0.2,4.8-0.6,9.1-0.9,9.6c-1.7,3.2-11.8,12.1-13.7,12.1c-1.5,0-7.3-4.1-11.2-7.8c-2.5-2.4-3.5-3.7-3.7-5c-0.1-0.9-0.2-5.4-0.1-9.8l0.1-8.1l3.6-0.7c2.1-0.4,5.2-1.5,7.6-2.7l4-2.1l1.6,0.9C200.3,154.4,202.1,155.3,203.4,156z"/></g></g></g>
</svg>