<?xml version="1.0" encoding="utf-8"?>
<!-- Svg Vector Icons : http://www.onlinewebfonts.com/icon -->
<!DOCTYPE svg PUBLIC "-//W3C//DTD SVG 1.1//EN" "http://www.w3.org/Graphics/SVG/1.1/DTD/svg11.dtd">
<svg version="1.1" xmlns="http://www.w3.org/2000/svg" xmlns:xlink="http://www.w3.org/1999/xlink" x="0px" y="0px" viewBox="0 0 256 256" enable-background="new 0 0 256 256" xml:space="preserve">
<metadata> Svg Vector Icons : http://www.onlinewebfonts.com/icon </metadata>
<g><g><path fill="#000000" d="M128,10C62.9,10,10,62.9,10,128c0,65.1,52.9,118,118,118c65.1,0,118-52.9,118-118C246,62.9,193.1,10,128,10z M128,236.2c-59.7,0-108.2-48.5-108.2-108.2C19.8,68.4,68.3,19.8,128,19.8S236.2,68.4,236.2,128C236.2,187.7,187.7,236.2,128,236.2z"/><path fill="#000000" d="M187.6,82.8l-75.5,77.9L68.3,118c-1.9-1.9-5.1-1.9-6.9,0.1c-1.9,1.9-1.9,5,0.1,6.9l47.3,46.2c0.9,0.9,2.1,1.4,3.4,1.4c0,0,0,0,0,0c1.3,0,2.6-0.6,3.5-1.5l79-81.4c1.9-2,1.9-5.1-0.1-7C192.6,80.8,189.5,80.9,187.6,82.8z"/></g></g>
</svg>