<?xml version="1.0" encoding="utf-8"?>
<!-- Svg Vector Icons : http://www.onlinewebfonts.com/icon -->
<!DOCTYPE svg PUBLIC "-//W3C//DTD SVG 1.1//EN" "http://www.w3.org/Graphics/SVG/1.1/DTD/svg11.dtd">
<svg version="1.1" xmlns="http://www.w3.org/2000/svg" xmlns:xlink="http://www.w3.org/1999/xlink" x="0px" y="0px" viewBox="0 0 256 256" enable-background="new 0 0 256 256" xml:space="preserve">
<metadata> Svg Vector Icons : http://www.onlinewebfonts.com/icon </metadata>
<g><g><g><path fill="#000000" d="M14.1,23.8c-0.8,0.4-2.1,1.5-2.8,2.4c-1.8,2.4-1.8,6.2,0,8.5c1.9,2.5,3.7,3.1,8.9,3.1h4.4v63.6c0,40.4,0.2,64.5,0.5,66.1c1.6,8.4,9,15.9,17.5,17.5c1.5,0.3,15.1,0.5,35.9,0.5c18.4,0,33.4,0.2,33.3,0.4c0,0.2-6.4,8.7-14,18.8l-13.8,18.3v2.7c0,2.9,0.8,4.3,3.2,6.1c1.8,1.3,6.1,1.3,8,0c0.7-0.5,8.1-10,16.5-21.1s15.4-20,15.6-19.9c0.2,0.1,7.2,9.3,15.6,20.4c12,16,15.6,20.4,16.9,21c6.8,3.2,13.2-4.3,9-10.8c-0.7-1.1-7-9.6-14-18.9l-12.7-16.8l36.1-0.2l36.1-0.2l2.6-1.1c7.4-3,12.9-9.4,14.3-16.7c0.3-1.6,0.5-24.7,0.5-66.1V37.8h4.4c5.1,0,7-0.6,8.9-3.1c1.8-2.4,1.8-6.1,0-8.5C242,22.7,253,23,127.9,23C24.9,23,15.5,23.1,14.1,23.8z M216.5,101.9c-0.1,64-0.1,64.1-1.1,65.4c-0.5,0.7-1.5,1.7-2.2,2.2l-1.2,1H128H44.1l-1.2-1c-0.7-0.5-1.7-1.5-2.2-2.2c-1-1.2-1-1.4-1.1-65.4l-0.1-64.1H128h88.6L216.5,101.9z"/><path fill="#000000" d="M188.7,66c-0.9,0.3-9.2,8.2-25.8,24.9c-13.4,13.4-24.6,24.5-24.9,24.5c-0.2,0-7.7-7.2-16.6-16.1c-14.1-14-16.4-16.2-17.9-16.4c-4.3-0.8-3.4-1.6-27.2,22.3c-23.8,23.8-23.1,23-22.3,27.1c0.4,2.2,3.4,5.1,5.5,5.5c4.1,0.7,3.6,1.1,23.7-18.9l18.5-18.5l16.1,16c8.8,8.8,16.6,16.2,17.3,16.5c2,0.7,4.3,0.6,6.2-0.4c2.2-1.2,55.7-54.8,56.3-56.5c1.4-3.8,0-7.6-3.6-9.5C191.8,65.4,190.9,65.3,188.7,66z"/></g></g></g>
</svg>