<?xml version="1.0" encoding="utf-8"?>
<!-- Svg Vector Icons : http://www.onlinewebfonts.com/icon -->
<!DOCTYPE svg PUBLIC "-//W3C//DTD SVG 1.1//EN" "http://www.w3.org/Graphics/SVG/1.1/DTD/svg11.dtd">
<svg version="1.1" xmlns="http://www.w3.org/2000/svg" xmlns:xlink="http://www.w3.org/1999/xlink" x="0px" y="0px" viewBox="0 0 256 256" enable-background="new 0 0 256 256" xml:space="preserve">
<metadata> Svg Vector Icons : http://www.onlinewebfonts.com/icon </metadata>
<g><g><g><path fill="#000000" d="M124.5,10.2c-2.3,0.6-6.2,2.9-7.4,4.4c-0.7,0.7-1.8,2.5-2.4,3.9c-1.2,2.5-1.2,2.7-1.2,13.4c0,10.8,0,10.9,1.2,13.4c2.5,5.4,7.4,8.5,13.3,8.5c3,0,3.9-0.2,6.6-1.5c3.2-1.6,4.9-3.3,6.9-7c1.1-2,1.1-2.4,1.1-13.4V20.6l-1.6-2.9c-1.8-3.4-3.4-4.9-6.9-6.5C131.4,10.1,127,9.6,124.5,10.2z"/><path fill="#000000" d="M50.9,40.7C46.5,42,42.2,46,40.9,50c-1.1,3.2-0.8,8.2,0.6,11.3c1.5,3.2,14.1,15.8,17.4,17.3c7.1,3.3,15.5,0.5,19.4-6.5c1.2-2.3,1.4-2.9,1.4-6.7c0-6.1-0.7-7.3-9.4-16c-6.3-6.3-7.5-7.3-9.9-8.2C57.7,40.3,53.2,40,50.9,40.7z"/><path fill="#000000" d="M195.4,41.3c-2.2,0.8-3.6,2.1-9.7,8.2c-8.2,8.2-9.2,9.8-9.6,15c-0.3,4.5,1.1,7.9,4.2,11.2c3.2,3.2,6.7,4.5,11.2,4.2c5.2-0.3,6.8-1.4,14.8-9.3c8-8,9.1-9.7,9.3-14.9c0.3-4.9-0.7-7.5-4.2-11c-2-1.9-3.5-3-5.1-3.6C203.2,40,198.6,40.1,195.4,41.3z"/><path fill="#000000" d="M120.4,69.4c-10.1,1.4-20.6,5.8-28.7,12c-3.9,3-10.2,9.8-12.8,13.9c-6.9,10.6-9.7,20.1-9.7,32.7c0,16.5,5.6,30,17.2,41.6c8.7,8.7,18.1,13.8,30.1,16.4c5.5,1.2,17.6,1.2,23.1,0c23.8-5.1,41.8-23.3,46.5-46.8c1.1-5.7,1.1-16.9,0-22.5c-2.5-12.1-7.6-21.5-16.4-30.3c-8.7-8.7-18.2-13.9-30.3-16.3C134.8,69.1,124.8,68.8,120.4,69.4z"/><path fill="#000000" d="M21.1,113.7c-4.2,1.1-7.4,3.6-9.5,7.5c-1.4,2.6-1.6,3.3-1.6,6.6c0,3,0.2,4.2,1.2,6.3c1.5,3.3,4,5.8,7.3,7.3c2.5,1.2,2.7,1.2,13.4,1.2c10.8,0,10.9,0,13.4-1.2c3.3-1.5,5.8-4,7.3-7.3c1.7-3.7,1.7-8.9,0-12.3c-1.8-3.5-3.2-4.9-6.5-6.7l-2.9-1.6l-10.4-0.1C27.1,113.3,21.9,113.5,21.1,113.7z"/><path fill="#000000" d="M212.2,114.1c-5.2,1.8-8.2,5-9.7,10.2c-1.9,6.7,1.6,14,8.1,17.1c2.5,1.2,2.7,1.2,13.4,1.2h10.9l3.1-1.5c5.2-2.5,7.9-7.1,8-13c0-3-0.2-3.9-1.5-6.6c-1.6-3.3-3.6-5.3-7-6.9c-1.9-1-2.8-1.1-12.5-1.2C215.9,113.2,214.3,113.3,212.2,114.1z"/><path fill="#000000" d="M60.8,176.7c-3,1-5.6,3-12.2,9.8c-7.1,7.3-8.3,9.3-8.3,14.6c0,4.4,1.1,7,4.3,10.3c3.5,3.5,6.1,4.5,11,4.2c5.2-0.3,6.9-1.3,14.9-9.3c8.5-8.5,9.2-9.7,9.2-15.7c0-3.6-0.2-4.5-1.2-6.5c-1.4-2.7-4.1-5.2-6.9-6.7C69.1,176.1,63.6,175.8,60.8,176.7z"/><path fill="#000000" d="M186.1,176.7c-6.6,2.4-10.4,8.2-10,14.9c0.3,5.2,1.4,6.9,9.3,14.8c8.5,8.5,9.7,9.2,15.8,9.2c3.6,0,4.5-0.2,6.5-1.2c3-1.6,6.3-5.3,7.3-8.1c1.1-3,0.9-7.4-0.2-10.6c-0.9-2.4-1.9-3.6-8.2-9.9c-8.3-8.3-9.8-9.3-15.2-9.5C189.1,176.1,187.2,176.3,186.1,176.7z"/><path fill="#000000" d="M124.5,202.3c-2.3,0.6-6.2,2.9-7.4,4.4c-0.7,0.7-1.8,2.5-2.4,3.9c-1.2,2.5-1.2,2.7-1.2,13.4c0,10.8,0,10.9,1.2,13.4c4.2,9,15.7,11.4,23.4,4.8c0.8-0.7,2.2-2.6,3-4.3l1.5-3.1v-10.9c0-10.7,0-10.9-1.2-13.4c-1.7-3.6-3.1-5.2-6.4-6.9C132,202.2,127.4,201.5,124.5,202.3z"/></g></g></g>
</svg>