<?xml version="1.0" encoding="utf-8"?>
<!-- Svg Vector Icons : http://www.onlinewebfonts.com/icon -->
<!DOCTYPE svg PUBLIC "-//W3C//DTD SVG 1.1//EN" "http://www.w3.org/Graphics/SVG/1.1/DTD/svg11.dtd">
<svg version="1.1" xmlns="http://www.w3.org/2000/svg" xmlns:xlink="http://www.w3.org/1999/xlink" x="0px" y="0px" viewBox="0 0 256 256" enable-background="new 0 0 256 256" xml:space="preserve">
<metadata> Svg Vector Icons : http://www.onlinewebfonts.com/icon </metadata>
<g><g><g><path fill="#000000" d="M118.5,10.5c-47,5-86.1,43.6-92.9,91.8c-0.5,3.4-0.9,7.3-0.9,8.6c0,1.4-0.5,3-1.2,3.9c-1.2,1.5-1.2,2.5-1.2,40.5v38.9l1.5,1.7c1.4,1.7,1.7,1.7,8,1.9l6.5,0.2v3c0,4.6,1.7,12.1,3.8,16.4c1,2.2,3.5,5.6,5.5,7.8c10,10.6,25.4,15.9,49.1,16.7c9.5,0.3,10.3,0.4,11.9,1.8c1,0.8,2.3,1.6,3.1,1.8c0.7,0.2,9.2,0.3,18.7,0.2l17.4-0.2l2-2c1.8-1.8,2-2.4,2.2-6.7c0.3-6.1-0.6-9.2-3.1-10.7c-1.8-1.2-3.2-1.2-19.8-1.2c-16.7,0-18,0.1-19.8,1.2c-1.1,0.7-2.2,1.9-2.4,2.7c-0.5,2.1-3.5,2.5-13.7,1.9c-25.5-1.4-38.4-8.6-42.3-23.5c-0.5-1.9-0.9-4.8-0.9-6.4v-2.9l8.4-0.2c8.3-0.2,8.4-0.2,9.8-1.9l1.5-1.7v-39.1v-39.1l-1.8-1.8l-1.8-1.8H55.2H44.4l0.4-3.6C46.8,89,55.3,70.7,69.1,56.2C82,42.8,98,34.1,115.3,31.1c7-1.2,19.6-1.2,26.4,0c34.8,6.1,63.4,35.5,69.6,71.6c0.6,3.2,1,6.7,1,7.9v2h-11.1H190l-1.8,1.8l-1.8,1.8v39.1v39.1l1.5,1.7l1.5,1.7l19.6,0.2c14,0.1,20.1-0.1,21.3-0.6c3.7-1.5,3.6,0.2,3.6-41.9c0-25.6-0.2-39.1-0.6-39.9c-0.4-0.6-0.9-4-1.2-7.5c-1.7-18.7-8.8-38.2-19.6-53.3c-5.4-7.6-18.5-20.7-26-26C166.6,14.8,141.5,8,118.5,10.5z"/></g></g></g>
</svg>