<?xml version="1.0" encoding="utf-8"?>
<!-- Svg Vector Icons : http://www.onlinewebfonts.com/icon -->
<!DOCTYPE svg PUBLIC "-//W3C//DTD SVG 1.1//EN" "http://www.w3.org/Graphics/SVG/1.1/DTD/svg11.dtd">
<svg version="1.1" xmlns="http://www.w3.org/2000/svg" xmlns:xlink="http://www.w3.org/1999/xlink" x="0px" y="0px" viewBox="0 0 256 256" enable-background="new 0 0 256 256" xml:space="preserve">
<metadata> Svg Vector Icons : http://www.onlinewebfonts.com/icon </metadata>
<g><g><path fill="#000000" d="M74.9,108C104,86.1,129,56,123.1,33.1c-1.6-6.1-0.3-12.1,3.5-16.6c3.5-4.1,9-6.5,14.9-6.5c0.9,0,1.8,0,2.7,0.2c7.4,0.9,14.4,5.1,19.7,11.9c5,6.4,7.8,14.2,8.1,22.1c0.6,16.3-4.1,32.6-9.3,47.8c0,0.6,0,0.9,0,1.3c6.9,0.5,15.7,0.9,21.9,1.2c3.6,0,7.3,0.2,10.8,0.4l4.3,0.1c1.2,0,2.3,0,3.3,0c0.7,0,1.4,0,2,0c3.8,0,6.8,0.1,9.4,0.4c12.8,1.7,22.3,11,23.7,22.9c0.7,6.2-1.3,11.8-5.6,16c7.5,3.7,12.2,9.8,13.1,17.5c0.8,6.4-1.1,12.5-5.4,17.1c-2,2.2-4.5,4-7.3,5.2c3.5,3.2,6.2,7.5,6.8,13.4c1.1,10.8-6.5,19.7-18.5,22.3c2.7,3.3,4.2,7.7,3.6,13.8c-0.7,6.6-4.4,15.3-18.3,19.6c-8.2,2.6-17.8,2.9-25.2,2.9c-1.3,0-2.5,0-3.6,0h-1.5c-41.9-0.2-77.2-7.4-101.5-20.4L74.9,108L74.9,108z M63.1,233.4H10V99.9h53.1V233.4z"/></g></g>
</svg>