<?xml version="1.0" encoding="utf-8"?>
<!-- Svg Vector Icons : http://www.onlinewebfonts.com/icon -->
<!DOCTYPE svg PUBLIC "-//W3C//DTD SVG 1.1//EN" "http://www.w3.org/Graphics/SVG/1.1/DTD/svg11.dtd">
<svg version="1.1" xmlns="http://www.w3.org/2000/svg" xmlns:xlink="http://www.w3.org/1999/xlink" x="0px" y="0px" viewBox="0 0 256 256" enable-background="new 0 0 256 256" xml:space="preserve">
<metadata> Svg Vector Icons : http://www.onlinewebfonts.com/icon </metadata>
<g><g><g><path fill="#000000" d="M50.3,6l-2.8,2.8l13.6,13.6l13.6,13.6L61.5,49.3L48.2,62.6L34.6,49L21,35.4l-2.8,2.8L15.4,41l6.6,24.6c3.7,13.5,6.7,25.1,6.9,25.7l0.3,1.1h24.2l24.2,0l19.4,19.7l19.4,19.7l-7.1,7.2l-7.2,7.2l-4.8-4.8l-4.7-4.7l-7.2,7.2l-7.2,7.2l2.3,2.3l2.3,2.3l-1.2,0.5c-2.3,0.9-8.7,5.4-14.5,10.2c-14.5,12.1-32.6,32.1-37,40.6l-1.2,2.4l-2.2-2.3l-2.3-2.2l-7.2,7.2l-7.2,7.2l16.7,16.7l16.7,16.7l7.2-7.2l7.2-7.2l-2.2-2.2l-2.2-2.2l2.9-1.6c7.1-4,16.4-12,28.4-24.2c11.5-11.7,18.5-20.2,21.6-26.5l0.9-1.6l2.1,2c1.2,1.1,2.3,2,2.6,1.9s3.5-3.3,7.2-7.2l6.7-7l-4.6-4.6l-4.6-4.6l7.2-7.2l7.2-7.2l42.7,43c27.2,27.4,43.5,43.4,44.9,44.2c7.6,4.3,16.2,3.2,22.2-2.8c3.9-3.9,5.2-7.2,5.3-13c0-3.7-0.1-4.5-1.6-7.5c-1.9-3.9-2-4.1-53.9-56.2l-33.6-33.8l19.2-19.2l19.2-19.3l16.3-10.5c9-5.8,16.8-11,17.3-11.5c0.6-0.5,3.9-6.3,7.5-12.7l6.5-11.6l-8-7.9l-7.9-7.9l-12.2,6.8L202.7,33L192,49.6l-10.7,16.7l-19.5,19.5l-19.4,19.6l-19-19.1l-18.9-19l0-25.1V17l-25.2-6.8C65.4,6.6,53.8,3.5,53.6,3.4C53.3,3.3,51.8,4.5,50.3,6z M232.2,211c4.7,2.5,5.7,8.7,1.9,12.5c-5.4,5.4-13.7,2.1-13.7-5.4c0-2.2,1-4.8,2.4-6.1C225.2,209.9,229.2,209.5,232.2,211z"/></g></g></g>
</svg>