<?xml version="1.0" encoding="utf-8"?>
<!-- Svg Vector Icons : http://www.onlinewebfonts.com/icon -->
<!DOCTYPE svg PUBLIC "-//W3C//DTD SVG 1.1//EN" "http://www.w3.org/Graphics/SVG/1.1/DTD/svg11.dtd">
<svg version="1.1" xmlns="http://www.w3.org/2000/svg" xmlns:xlink="http://www.w3.org/1999/xlink" x="0px" y="0px" viewBox="0 0 256 256" enable-background="new 0 0 256 256" xml:space="preserve">
<metadata> Svg Vector Icons : http://www.onlinewebfonts.com/icon </metadata>
<g><g><g><path fill="#000000" d="M107.7,20.1c-24.2,2.5-47.6,13.4-64.9,30.2C25,67.6,14.3,89,10.6,114.4c-0.9,6.5-0.8,21.4,0.2,28.3c4.8,31.7,21.8,58.6,47.8,75.7c38.3,25.1,87.4,23.5,124.6-4.1c18.4-13.7,31.9-33.4,39.1-57l0.9-3l7.9-0.2c8.7-0.3,9.8-0.6,12.5-3.6c1.9-2.1,2.8-5.2,2.3-8c-0.2-1.4-3.6-7.8-11.9-21.9c-6.4-10.9-12.1-20.6-12.8-21.5c-3.5-4.7-11.5-5.1-15.5-0.7c-0.9,1-7,10.9-13.4,22c-9.9,16.9-11.8,20.5-12,22.5c-0.4,4.4,1.8,8.5,5.5,10.3c1.8,0.9,3.1,1,8.6,1c4.2,0,6.5,0.2,6.5,0.5c0,0.9-3.3,9-4.9,12.3c-6.2,12.3-16.4,24.1-27.6,32.2c-8.8,6.3-21.7,11.9-32.6,14.1c-25,5.1-51.3-1-71.4-16.8c-5.4-4.2-13.2-12.4-17.3-18.1c-6.3-8.8-11.9-21.7-14.1-32.8c-5.1-24.6,1.1-51.2,16.8-71.2c4.2-5.4,12.4-13.2,18.1-17.3c5.7-4.1,16.8-9.6,23.4-11.7c30.6-9.7,62.8-2.5,86.1,19.2c4,3.7,5.5,4.6,8.3,5.1c7.9,1.4,14.7-7.4,11.3-14.7c-1.1-2.5-7.8-8.9-14.2-13.6c-14-10.4-29.9-17.1-47.7-20.1C128.1,19.9,114.6,19.5,107.7,20.1z"/><path fill="#000000" d="M112.6,66.4c-7.4,0.9-13.3,4.5-16.4,10c-1.9,3.2-2.8,7.3-2.8,13.1c0,4.6-0.1,5.2-1.3,6.9c-1.2,1.7-1.3,2.2-1,5.9c0.2,4.5,1.5,7.8,4.5,11.6c1,1.3,2.3,3.5,2.8,4.9c3,7.5,9.3,13,16.3,13.9c7.3,1.1,15.9-4.8,19.4-13.3c0.8-1.9,1.9-4,2.5-4.7c3.3-3.8,5.1-8.5,5.1-13.5c0-2.7-0.2-3.8-0.9-4.7c-0.7-0.9-0.9-2.4-1.2-6.4c-0.2-5.5-1.5-10-3.3-11.5c-0.5-0.5-1.1-1.6-1.2-2.5c-0.5-2.7-2.9-5.5-5.8-6.9C124.5,66.8,117.7,65.7,112.6,66.4z"/><path fill="#000000" d="M90.7,128.7c-11.5,4.8-14.3,6.4-17.9,10.1c-3.5,3.5-6,8-7.9,14.2c-1.2,4-2,10.6-1.3,11.7c0.5,1,3.1,2,8.5,3.4c20.4,5.5,60.3,6.1,83.5,1.3c6.1-1.3,12.5-3.3,13.5-4.3c1.7-1.7-0.4-12-4-19.2c-1.7-3.6-2.9-5.1-5.6-7.7c-3.8-3.5-6.6-5.1-18-9.8l-6.9-2.9l-2.2,2.5c-8.7,10-21.9,10.2-31.3,0.6l-3-3.1L90.7,128.7z"/></g></g></g>
</svg>