<?xml version="1.0" encoding="utf-8"?>
<!-- Svg Vector Icons : http://www.onlinewebfonts.com/icon -->
<!DOCTYPE svg PUBLIC "-//W3C//DTD SVG 1.1//EN" "http://www.w3.org/Graphics/SVG/1.1/DTD/svg11.dtd">
<svg version="1.1" xmlns="http://www.w3.org/2000/svg" xmlns:xlink="http://www.w3.org/1999/xlink" x="0px" y="0px" viewBox="0 0 256 256" enable-background="new 0 0 256 256" xml:space="preserve">
<metadata> Svg Vector Icons : http://www.onlinewebfonts.com/icon </metadata>
<g><g><g><path fill="#000000" d="M116.8,10.4c-40.9,4.2-76,28.4-94.4,65C4.9,110.1,6,152.7,25.3,186.2c7.6,13.2,17.3,24.6,28.8,33.8c14,11.3,32.5,20.1,49.6,23.6c9.7,1.9,13.6,2.4,24.2,2.4c12,0,18.6-0.8,29.1-3.5c9-2.3,14.4-4.3,23.5-8.8c30.7-15,53.7-43.4,62.1-76.6c2.5-10.1,3.4-17.1,3.4-28.9c0-14.5-1.5-24.3-5.7-37.1c-5.9-17.9-15-32.7-28.3-46.2c-18.4-18.6-40.7-29.9-67.3-34C139,10.1,122.7,9.7,116.8,10.4z M141.7,33.2c9.9,1.3,18.6,4,28.2,8.7c16,7.8,28.8,19.2,39,34.6c3,4.5,7.8,14.4,9.6,19.6c6.1,17.5,7,37.9,2.4,55.6c-7,27.1-25.5,49.9-50.5,62.2c-13.8,6.7-26.8,9.7-42.2,9.7c-15.5,0-28.1-2.9-41.8-9.6c-16.1-7.8-28.9-19.2-39-34.6c-2.8-4.3-7.7-14.2-9.5-19.2c-6.3-17.7-7.2-38-2.5-56.1c1.8-7,3.3-11,6.7-18c4.9-10.1,10.5-17.9,18.4-25.9c8-7.9,15.7-13.5,25.9-18.5C103.5,33.5,122.3,30.6,141.7,33.2z"/><path fill="#000000" d="M112.4,82.8v29.5H82.9H53.3V128v15.7h29.5h29.5v29.5v29.5h15.7h15.7v-29.5v-29.5h29.5h29.5V128v-15.7h-29.5h-29.5V82.8V53.2h-15.7h-15.7V82.8L112.4,82.8z"/></g></g></g>
</svg>