<svg id="visual" viewBox="0 0 900 600" width="900" height="600" xmlns="http://www.w3.org/2000/svg" xmlns:xlink="http://www.w3.org/1999/xlink" version="1.1"><rect x="0" y="0" width="900" height="600" fill="#f9fafb"></rect><path d="M0 455L37.5 461C75 467 150 479 225 482.8C300 486.7 375 482.3 450 482.3C525 482.3 600 486.7 675 483.5C750 480.3 825 469.7 862.5 464.3L900 459L900 601L862.5 601C825 601 750 601 675 601C600 601 525 601 450 601C375 601 300 601 225 601C150 601 75 601 37.5 601L0 601Z" fill="#A0A0A0" stroke-linecap="round" stroke-linejoin="miter"></path></svg>