<svg id="visual" viewBox="0 0 900 600" width="900" height="600" xmlns="http://www.w3.org/2000/svg" xmlns:xlink="http://www.w3.org/1999/xlink" version="1.1"><rect x="0" y="0" width="900" height="600" fill="#f9fafb"></rect><path d="M0 152L37.5 150.5C75 149 150 146 225 137.7C300 129.3 375 115.7 450 105.7C525 95.7 600 89.3 675 89.7C750 90 825 97 862.5 100.5L900 104L900 0L862.5 0C825 0 750 0 675 0C600 0 525 0 450 0C375 0 300 0 225 0C150 0 75 0 37.5 0L0 0Z" fill="#A0A0A0" stroke-linecap="round" stroke-linejoin="miter"></path></svg>